<mxfile host="Electron" agent="Mozilla/5.0 (Windows NT 10.0; Win64; x64) AppleWebKit/537.36 (KHTML, like Gecko) draw.io/24.7.8 Chrome/128.0.6613.36 Electron/32.0.1 Safari/537.36" version="24.7.8">
  <diagram id="rWpWgwsuL6djaKMBrnnI" name="Page-1">
    <mxGraphModel dx="1417" dy="837" grid="1" gridSize="10" guides="1" tooltips="1" connect="1" arrows="1" fold="1" page="1" pageScale="1" pageWidth="1654" pageHeight="1169" math="0" shadow="0">
      <root>
        <mxCell id="0" />
        <mxCell id="1" parent="0" />
        <mxCell id="6HFF_rAxcvzF4UJ83M6X-170" value="&lt;span style=&quot;font-size: 42px;&quot;&gt;\textwidth&lt;/span&gt;&lt;br&gt;&lt;font style=&quot;font-size: 20px;&quot;&gt;150mm = [591]&lt;/font&gt;" style="rounded=0;whiteSpace=wrap;html=1;labelBackgroundColor=none;strokeColor=#000000;strokeWidth=0.4;fontFamily=CMU Sans Serif;fontSize=9;fillColor=none;fontColor=#808080;" parent="1" vertex="1">
          <mxGeometry x="79" y="120" width="591" height="840" as="geometry" />
        </mxCell>
        <mxCell id="27" style="edgeStyle=orthogonalEdgeStyle;rounded=0;orthogonalLoop=1;jettySize=auto;html=1;entryX=0.5;entryY=0;entryDx=0;entryDy=0;" parent="1" edge="1">
          <mxGeometry relative="1" as="geometry">
            <mxPoint x="700" y="200" as="sourcePoint" />
          </mxGeometry>
        </mxCell>
        <mxCell id="88" value="" style="group;strokeColor=#327A24;strokeWidth=0.4;fillColor=default;container=0;fontFamily=CMU Sans Serif;fontSize=11;" parent="1" vertex="1" connectable="0">
          <mxGeometry x="240" y="190.12" width="430" height="258" as="geometry" />
        </mxCell>
        <mxCell id="89" value="" style="shape=image;verticalLabelPosition=bottom;labelBackgroundColor=default;verticalAlign=top;aspect=fixed;imageAspect=0;image=data:image/svg+xml,PHN2ZyB4bWxucz0iaHR0cDovL3d3dy53My5vcmcvMjAwMC9zdmciIHdpZHRoPSIzMDAiIGhlaWdodD0iMzAwIiB2aWV3Qm94PSIwIDAgNzkuMzc0OTg5IDc5LjM3NDk4NyIgdmVyc2lvbj0iMS4xIiBpZD0ic3ZnOCI+CiAgPGRlZnMgaWQ9ImRlZnMyIj4KICAgIDxtYXJrZXIgc3R5bGU9Im92ZXJmbG93OnZpc2libGUiIGlkPSJBcnJvdzFTc3RhcnQiIHJlZlg9IjAiIHJlZlk9IjAiIG9yaWVudD0iYXV0byI+CiAgICAgIDxwYXRoIHRyYW5zZm9ybT0ibWF0cml4KDAuMiwwLDAsMC4yLDEuMiwwKSIgc3R5bGU9ImZpbGw6IzE3NmZjMTtmaWxsLW9wYWNpdHk6MTtmaWxsLXJ1bGU6ZXZlbm9kZDtzdHJva2U6IzE3NmZjMTtzdHJva2Utd2lkdGg6MS4wMDAwMDAwM3B0O3N0cm9rZS1vcGFjaXR5OjEiIGQ9Ik0gMCwwIDUsLTUgLTEyLjUsMCA1LDUgWiIgaWQ9InBhdGg0NTkxIi8+CiAgICA8L21hcmtlcj4KICAgIDxtYXJrZXIgc3R5bGU9Im92ZXJmbG93OnZpc2libGUiIGlkPSJUb3JzbyIgcmVmWD0iMCIgcmVmWT0iMCIgb3JpZW50PSJhdXRvIj4KICAgICAgPGcgc3R5bGU9ImZpbGw6IzE3NmZjMTtmaWxsLW9wYWNpdHk6MTtzdHJva2U6IzE3NmZjMTtzdHJva2Utb3BhY2l0eToxIiB0cmFuc2Zvcm09InNjYWxlKDAuNykiIGlkPSJnNDgwNSI+CiAgICAgICAgPHBhdGggc3R5bGU9ImZpbGw6IzE3NmZjMTtmaWxsLW9wYWNpdHk6MTtmaWxsLXJ1bGU6ZXZlbm9kZDtzdHJva2U6IzE3NmZjMTtzdHJva2Utd2lkdGg6MS4yNTtzdHJva2Utb3BhY2l0eToxIiBkPSJtIC00Ljc3OTIyODEsLTMuMjM5NTQyIGMgMi4zNTAzNzQsMC4zNjU5MzkzIDUuMzAwMjY3MzIsMS45Mzc1NDc3IDUuMDM3MTU1MzIsMy42Mjc0ODU0NiBDIC0wLjAwNTE4Nzc5LDIuMDc3ODgxOSAtMi4yMTI2NzQxLDIuNjE3NjUzOSAtNC41NjMwNDcxLDIuMjUxNzE2OSAtNi45MTM0MjIxLDEuODg1Nzc2OSAtOC41MjEwMzUsMC43NTIwMTQxNCAtOC4yNTc5MjIsLTAuOTM3OTIzMzYgLTcuOTk0ODA5LC0yLjYyNzg2MTUgLTcuMTI5NjA0MSwtMy42MDU0ODEzIC00Ljc3OTIyODEsLTMuMjM5NTQyIFoiIGlkPSJwYXRoNDc5MSIvPgogICAgICAgIDxwYXRoIHN0eWxlPSJmaWxsOiMxNzZmYzE7ZmlsbC1vcGFjaXR5OjE7ZmlsbC1ydWxlOmV2ZW5vZGQ7c3Ryb2tlOiMxNzZmYzE7c3Ryb2tlLXdpZHRoOjEuMDAwMDAwMDNwdDtzdHJva2Utb3BhY2l0eToxIiBkPSJNIDQuNDU5ODc4OSwwLjA4ODY2NTc0IEMgLTIuNTU2NDU3MSwtNC4zNzgzMzIgNS4yMjQ4NzY5LC0zLjkwNjE4MDYgLTAuODQ4Mjk1NzgsLTguNzE5NzMzMSIgaWQ9InBhdGg0NzkzIi8+CiAgICAgICAgPHBhdGggc3R5bGU9ImZpbGw6IzE3NmZjMTtmaWxsLW9wYWNpdHk6MTtmaWxsLXJ1bGU6ZXZlbm9kZDtzdHJva2U6IzE3NmZjMTtzdHJva2Utd2lkdGg6MS4wMDAwMDAwM3B0O3N0cm9rZS1vcGFjaXR5OjEiIGQ9Ik0gNC45Mjk4NzE5LDAuMDU3NTIwNzQgQyAtMS4zODcyNzMxLDEuNzQ5NDY4OSAxLjgwMjc1NzksNS40NzgyMDc5IC00Ljk0NDg3MzEsNy41NDYyNzI1IiBpZD0icGF0aDQ3OTUiLz4KICAgICAgICA8cmVjdCBzdHlsZT0iZmlsbDojMTc2ZmMxO2ZpbGwtb3BhY2l0eToxO2ZpbGwtcnVsZTpldmVub2RkO3N0cm9rZTojMTc2ZmMxO3N0cm9rZS13aWR0aDoxLjAwMDAwMDAzcHQ7c3Ryb2tlLW9wYWNpdHk6MSIgd2lkdGg9IjIuNjM2NjU4MiIgaGVpZ2h0PSIyLjc2MDgxNDciIHg9Ii0xMC4zOTE3MDYiIHk9Ii0xLjc0MDg1NzUiIHRyYW5zZm9ybT0ibWF0cml4KDAuNTI3NTM2LC0wLjg0OTUzMywwLjg4NzY2OCwwLjQ2MDQ4NCwwLDApIiBpZD0icmVjdDQ3OTciLz4KICAgICAgICA8cmVjdCBzdHlsZT0iZmlsbDojMTc2ZmMxO2ZpbGwtb3BhY2l0eToxO2ZpbGwtcnVsZTpldmVub2RkO3N0cm9rZTojMTc2ZmMxO3N0cm9rZS13aWR0aDoxLjAwMDAwMDAzcHQ7c3Ryb2tlLW9wYWNpdHk6MSIgd2lkdGg9IjIuNzMyNzM1NiIgaGVpZ2h0PSIyLjg2MTQxNjEiIHg9IjQuOTU4NzI2OSIgeT0iLTcuOTYyOTMwNyIgdHJhbnNmb3JtPSJtYXRyaXgoMC42NzEyMDUsLTAuNzQxMjcyLDAuNzkwODAyLDAuNjEyMDcyLDAsMCkiIGlkPSJyZWN0NDc5OSIvPgogICAgICAgIDxwYXRoIHN0eWxlPSJmaWxsOiMxNzZmYzE7ZmlsbC1vcGFjaXR5OjE7ZmlsbC1ydWxlOmV2ZW5vZGQ7c3Ryb2tlOiMxNzZmYzE7c3Ryb2tlLXdpZHRoOjEuMDAwMDAwMDNwdDtzdHJva2Utb3BhY2l0eToxIiBkPSJtIDE2Ljc3OTk1MSwtMjguNjg1MDQ1IGEgMC42MDczMTcyNywwLjYwNzMxNzI3IDAgMSAwIC0xLjIxNDYzNCwwIDAuNjA3MzE3MjcsMC42MDczMTcyNyAwIDEgMCAxLjIxNDYzNCwwIHoiIHRyYW5zZm9ybT0ibWF0cml4KDAsLTEuMTA5NTE3LDEuMTA5NTE3LDAsMjUuOTY2NDgsMTkuNzE2MTkpIiBpZD0icGF0aDQ4MDEiLz4KICAgICAgICA8cGF0aCBzdHlsZT0iZmlsbDojMTc2ZmMxO2ZpbGwtb3BhY2l0eToxO2ZpbGwtcnVsZTpldmVub2RkO3N0cm9rZTojMTc2ZmMxO3N0cm9rZS13aWR0aDoxLjAwMDAwMDAzcHQ7c3Ryb2tlLW9wYWNpdHk6MSIgZD0ibSAxNi43Nzk5NTEsLTI4LjY4NTA0NSBhIDAuNjA3MzE3MjcsMC42MDczMTcyNyAwIDEgMCAtMS4yMTQ2MzQsMCAwLjYwNzMxNzI3LDAuNjA3MzE3MjcgMCAxIDAgMS4yMTQ2MzQsMCB6IiB0cmFuc2Zvcm09Im1hdHJpeCgwLC0xLjEwOTUxNywxLjEwOTUxNywwLDI2LjgyNDUsMTYuOTkxMjYpIiBpZD0icGF0aDQ4MDMiLz4KICAgICAgPC9nPgogICAgPC9tYXJrZXI+CiAgICA8bWFya2VyIHN0eWxlPSJvdmVyZmxvdzp2aXNpYmxlIiBpZD0iVHJpYW5nbGVJbk0iIHJlZlg9IjAiIHJlZlk9IjAiIG9yaWVudD0iYXV0byI+CiAgICAgIDxwYXRoIHRyYW5zZm9ybT0ic2NhbGUoLTAuNCkiIHN0eWxlPSJmaWxsOiMxNzZmYzE7ZmlsbC1vcGFjaXR5OjE7ZmlsbC1ydWxlOmV2ZW5vZGQ7c3Ryb2tlOiMxNzZmYzE7c3Ryb2tlLXdpZHRoOjEuMDAwMDAwMDNwdDtzdHJva2Utb3BhY2l0eToxIiBkPSJNIDUuNzcsMCAtMi44OCw1IFYgLTUgWiIgaWQ9InBhdGg0NzE1Ii8+CiAgICA8L21hcmtlcj4KICAgIDxtYXJrZXIgc3R5bGU9Im92ZXJmbG93OnZpc2libGUiIGlkPSJBcnJvdzJNc3RhcnQiIHJlZlg9IjAiIHJlZlk9IjAiIG9yaWVudD0iYXV0byI+CiAgICAgIDxwYXRoIHRyYW5zZm9ybT0ic2NhbGUoMC42KSIgZD0iTSA4LjcxODU4NzgsNC4wMzM3MzUyIC0yLjIwNzI4OTUsMC4wMTYwMTMyNiA4LjcxODU4ODQsLTQuMDAxNzA3OCBjIC0xLjc0NTQ5ODQsMi4zNzIwNjA5IC0xLjczNTQ0MDgsNS42MTc0NTE5IC02ZS03LDguMDM1NDQzIHoiIHN0eWxlPSJmaWxsOiMxNzZmYzE7ZmlsbC1vcGFjaXR5OjE7ZmlsbC1ydWxlOmV2ZW5vZGQ7c3Ryb2tlOiMxNzZmYzE7c3Ryb2tlLXdpZHRoOjAuNjI1O3N0cm9rZS1saW5lam9pbjpyb3VuZDtzdHJva2Utb3BhY2l0eToxIiBpZD0icGF0aDQ2MDMiLz4KICAgIDwvbWFya2VyPgogICAgPG1hcmtlciBzdHlsZT0ib3ZlcmZsb3c6dmlzaWJsZSIgaWQ9IkFycm93MUxzdGFydCIgcmVmWD0iMCIgcmVmWT0iMCIgb3JpZW50PSJhdXRvIj4KICAgICAgPHBhdGggdHJhbnNmb3JtPSJtYXRyaXgoMC44LDAsMCwwLjgsMTAsMCkiIHN0eWxlPSJmaWxsOiMxNzZmYzE7ZmlsbC1vcGFjaXR5OjE7ZmlsbC1ydWxlOmV2ZW5vZGQ7c3Ryb2tlOiMxNzZmYzE7c3Ryb2tlLXdpZHRoOjEuMDAwMDAwMDNwdDtzdHJva2Utb3BhY2l0eToxIiBkPSJNIDAsMCA1LC01IC0xMi41LDAgNSw1IFoiIGlkPSJwYXRoNDU3OSIvPgogICAgPC9tYXJrZXI+CiAgICA8bWFya2VyIHN0eWxlPSJvdmVyZmxvdzp2aXNpYmxlIiBpZD0ibWFya2VyNjAwOSIgcmVmWD0iMCIgcmVmWT0iMCIgb3JpZW50PSJhdXRvIj4KICAgICAgPHBhdGggdHJhbnNmb3JtPSJtYXRyaXgoMC4yLDAsMCwwLjIsMS40OCwwLjIpIiBzdHlsZT0iZmlsbDojZmZmZmZmO2ZpbGwtb3BhY2l0eToxO2ZpbGwtcnVsZTpldmVub2RkO3N0cm9rZTojZmZmZmZmO3N0cm9rZS13aWR0aDoxLjAwMDAwMDAzcHQ7c3Ryb2tlLW9wYWNpdHk6MSIgZD0ibSAtMi41LC0xIGMgMCwyLjc2IC0yLjI0LDUgLTUsNSAtMi43NiwwIC01LC0yLjI0IC01LC01IDAsLTIuNzYgMi4yNCwtNSA1LC01IDIuNzYsMCA1LDIuMjQgNSw1IHoiIGlkPSJwYXRoNjAwNyIvPgogICAgPC9tYXJrZXI+CiAgICA8bWFya2VyIHN0eWxlPSJvdmVyZmxvdzp2aXNpYmxlIiBpZD0iRGlhbW9uZFNlbmQiIHJlZlg9IjAiIHJlZlk9IjAiIG9yaWVudD0iYXV0byI+CiAgICAgIDxwYXRoIHRyYW5zZm9ybT0ibWF0cml4KDAuMiwwLDAsMC4yLC0xLjIsMCkiIHN0eWxlPSJmaWxsOiNmZmZmZmY7ZmlsbC1vcGFjaXR5OjE7ZmlsbC1ydWxlOmV2ZW5vZGQ7c3Ryb2tlOiNmZmZmZmY7c3Ryb2tlLXdpZHRoOjEuMDAwMDAwMDNwdDtzdHJva2Utb3BhY2l0eToxIiBkPSJNIDAsLTcuMDcxMDc2OCAtNy4wNzEwODk0LDAgMCw3LjA3MTA1ODkgNy4wNzEwNDYyLDAgWiIgaWQ9InBhdGg0NjgyIi8+CiAgICA8L21hcmtlcj4KICAgIDxtYXJrZXIgc3R5bGU9Im92ZXJmbG93OnZpc2libGUiIGlkPSJFbXB0eURpYW1vbmRTc3RhcnQiIHJlZlg9IjAiIHJlZlk9IjAiIG9yaWVudD0iYXV0byI+CiAgICAgIDxwYXRoIHRyYW5zZm9ybT0ibWF0cml4KDAuMiwwLDAsMC4yLDEuMiwwKSIgc3R5bGU9ImZpbGw6IzE3NmZjMTtmaWxsLW9wYWNpdHk6MTtmaWxsLXJ1bGU6ZXZlbm9kZDtzdHJva2U6IzE3NmZjMTtzdHJva2Utd2lkdGg6MS4wMDAwMDAwM3B0O3N0cm9rZS1vcGFjaXR5OjEiIGQ9Ik0gMCwtNy4wNzEwNzY4IC03LjA3MTA4OTQsMCAwLDcuMDcxMDU4OSA3LjA3MTA0NjIsMCBaIiBpZD0icGF0aDQ3MDAiLz4KICAgIDwvbWFya2VyPgogICAgPG1hcmtlciBvcmllbnQ9ImF1dG8iIHJlZlk9IjAiIHJlZlg9IjAiIGlkPSJtYXJrZXI1MzU2IiBzdHlsZT0ib3ZlcmZsb3c6dmlzaWJsZSI+CiAgICAgIDxwYXRoIGlkPSJwYXRoNTM1NCIgZD0ibSAtMi41LC0xIGMgMCwyLjc2IC0yLjI0LDUgLTUsNSAtMi43NiwwIC01LC0yLjI0IC01LC01IDAsLTIuNzYgMi4yNCwtNSA1LC01IDIuNzYsMCA1LDIuMjQgNSw1IHoiIHN0eWxlPSJmaWxsOiMzZTlhMmU7ZmlsbC1vcGFjaXR5OjE7ZmlsbC1ydWxlOmV2ZW5vZGQ7c3Ryb2tlOiNmZmZmZmY7c3Ryb2tlLXdpZHRoOjEuMDAwMDAwMDNwdDtzdHJva2Utb3BhY2l0eToxIiB0cmFuc2Zvcm09Im1hdHJpeCgwLjIsMCwwLDAuMiwxLjQ4LDAuMikiLz4KICAgIDwvbWFya2VyPgogICAgPG1hcmtlciBzdHlsZT0ib3ZlcmZsb3c6dmlzaWJsZSIgaWQ9IlNxdWFyZU0iIHJlZlg9IjAiIHJlZlk9IjAiIG9yaWVudD0iYXV0byI+CiAgICAgIDxwYXRoIHRyYW5zZm9ybT0ic2NhbGUoMC40KSIgc3R5bGU9ImZpbGw6IzNlOWEyZTtmaWxsLW9wYWNpdHk6MTtmaWxsLXJ1bGU6ZXZlbm9kZDtzdHJva2U6I2ZmZmZmZjtzdHJva2Utd2lkdGg6MS4wMDAwMDAwM3B0O3N0cm9rZS1vcGFjaXR5OjEiIGQ9Ik0gLTUsLTUgViA1IEggNSBWIC01IFoiIGlkPSJwYXRoNDY1MiIvPgogICAgPC9tYXJrZXI+CiAgICA8bWFya2VyIHN0eWxlPSJvdmVyZmxvdzp2aXNpYmxlIiBpZD0iU2Npc3NvcnMiIHJlZlg9IjAiIHJlZlk9IjAiIG9yaWVudD0iYXV0byI+CiAgICAgIDxwYXRoIHN0eWxlPSJmaWxsOiMxNzZmYzE7ZmlsbC1vcGFjaXR5OjE7c3Ryb2tlOiMxNzZmYzE7c3Ryb2tlLW9wYWNpdHk6MSIgZD0iTSA5LjA4OTg4NTcsLTMuNjA2MTAxOCBDIDguMTE5ODg0OSwtNC43NzY5OTc2IDYuMzY5NzYwNywtNC43MzU4Mjk0IDUuMDYyMzU1OCwtNC4yMzI3NzM0IGwgLTguMjEyNDA0NiwzLjA3NzkwMjkgYyAtMi4zODgyOTMzLC0xLjMwNjcxMzUgLTQuNzQ4Mjg3MywtMC45MzI1MzcyIC00Ljc0ODI4NzMsLTEuNTY4Nzg3MyAwLC0wLjQ5NzMxNjQgMC40NTY2NjYyLC0wLjM4ODMyMjIgMC4zODgzMDY4LC0xLjY4MzE5NDEgLTAuMDY1NjM1LC0xLjI0MzI3NjcgLTEuMzYzNTc3MSwtMi4xNjMwNzk2IC0yLjU5MDM5ODcsLTIuMDgxNjQzNSAtMS4yMjcyNzEsLTAuMDA3MzUgLTIuNDk5NDM5LDAuOTMzMTYxMyAtMi41MTAzNDEsMi4yMzAwNjExIC0wLjA5MTQzLDEuMzA2Mzg2NCAxLjAwNzIwOSwyLjUxOTY4OTYgMi4zMDY3NjQsMi42MDUyMzE2IDEuNTIyMzQwNiwwLjIyNjY2MTYgNC4yMTgyNTgsLTAuNjk1NTU2NiA1LjQ4Mjk0NSwxLjU3MDg2MDA2IC0wLjk0MjI4NDcsMS43MzgyNTc3NCAtMi42MTQwMjQ0LDEuNzQzMDc2NzQgLTQuMTI1NTEwNywxLjY1NjA3MDM0IC0xLjI1NDg3NDMsLTAuMDcyMjM1IC0yLjc2MjA5MzMsMC4yODczOTc5IC0zLjM2MDY0ODMsMS41MjA4NjA1IC0wLjU3ODM2NywxLjE4MjA4NjIgLTAuMDExMiwyLjg2NDYwMjIgMS4zMTY3NDksMy4yMjY0MTIgMS4zNDAxOTEyLDAuNDkxODI3NyAzLjE4MDY2ODksLTAuMTI5NzExIDMuNDk5MzcyMiwtMS42NzA3MjQyIDAuMjQ1NjU4NSwtMS4xODc4MjMgLTAuNTk1MzY1OSwtMS43NDU5NTc0IC0wLjI3MjUwNzQsLTIuMTc3MTUzNyAwLjI0MzYxMzUsLTAuMzI1MzYgMS43OTA3ODA2LC0wLjEzNjg0NTIgNC41NDcxMDUzLC0xLjM3NDgyNDQgTCA1LjY3NjM0NjgsNC4yMzMwNjg4IEMgNi44MDAwMTY0LDQuNTQ2NzY3MiA4LjE3MzA2ODUsNC41MzYyNjQ2IDkuMTY4NDQzMywzLjQzMTM2MTQgbCAtOS4yMjAwODQyMywtMy40ODUwODM2MiB6IG0gLTE4LjMwNzgwMTYsLTEuOTAwNTA0IGMgMS4yOTQ1NTksMC43MjI3OTk4IDEuMTg4ODM5MiwyLjY4MzU3MDIgLTAuMTU2NDI3MiwzLjA2MzI4ODkgLTEuMjE2NTE3OSwwLjQyMzY2MSAtMi43NzEwMjY5LC0wLjc1ODk2OTQgLTIuMzgzMTc3OSwtMi4wNzc0NjQ4IDAuMjI3MTQ4LC0xLjA4MTg1MTkgMS42NTMzODcsLTEuNDgwNjMyIDIuNTM5NjA1MSwtMC45ODU4MjQxIHogbSAwLjA1NjI2NCw4LjAxNzM2NDkgYyAxLjM1MDgzMDEsMC40OTg4NjQ4IDEuMTIxNDQyOSwyLjc4NDQzNTYgLTAuMjUyMjIwNywzLjA5MTYwOSAtMC45MTEwNTk0LDAuMzE2MzM5MSAtMi4yMTM1NDk0LC0wLjEzODc5NzYgLTIuMzA1Njk2NCwtMS4yMTIxMzk0IC0wLjE3NzYwOSwtMS4zMDUwNTUgMS4zNTYwODUsLTIuNDg0MTQ4MiAyLjU1NzkxNzEsLTEuODc5NDY5NiB6IiBpZD0ic2NoZXJlIi8+CiAgICA8L21hcmtlcj4KICAgIDxtYXJrZXIgc3R5bGU9Im92ZXJmbG93OnZpc2libGUiIGlkPSJEaWFtb25kUyIgcmVmWD0iMCIgcmVmWT0iMCIgb3JpZW50PSJhdXRvIj4KICAgICAgPHBhdGggdHJhbnNmb3JtPSJzY2FsZSgwLjIpIiBzdHlsZT0iZmlsbDojM2U5YTJlO2ZpbGwtb3BhY2l0eToxO2ZpbGwtcnVsZTpldmVub2RkO3N0cm9rZTojZmZmZmZmO3N0cm9rZS13aWR0aDoxLjAwMDAwMDAzcHQ7c3Ryb2tlLW9wYWNpdHk6MSIgZD0iTSAwLC03LjA3MTA3NjggLTcuMDcxMDg5NCwwIDAsNy4wNzEwNTg5IDcuMDcxMDQ2MiwwIFoiIGlkPSJwYXRoNDY2NCIvPgogICAgPC9tYXJrZXI+CiAgICA8bWFya2VyIHN0eWxlPSJvdmVyZmxvdzp2aXNpYmxlIiBpZD0iQXJyb3cxU2VuZCIgcmVmWD0iMCIgcmVmWT0iMCIgb3JpZW50PSJhdXRvIj4KICAgICAgPHBhdGggdHJhbnNmb3JtPSJtYXRyaXgoLTAuMiwwLDAsLTAuMiwtMS4yLDApIiBzdHlsZT0iZmlsbDojM2U5YTJlO2ZpbGwtb3BhY2l0eToxO2ZpbGwtcnVsZTpldmVub2RkO3N0cm9rZTojZmZmZmZmO3N0cm9rZS13aWR0aDoxLjAwMDAwMDAzcHQ7c3Ryb2tlLW9wYWNpdHk6MSIgZD0iTSAwLDAgNSwtNSAtMTIuNSwwIDUsNSBaIiBpZD0icGF0aDQ1OTQiLz4KICAgIDwvbWFya2VyPgogICAgPG1hcmtlciBzdHlsZT0ib3ZlcmZsb3c6dmlzaWJsZSIgaWQ9IkRvdE0iIHJlZlg9IjAiIHJlZlk9IjAiIG9yaWVudD0iYXV0byI+CiAgICAgIDxwYXRoIHRyYW5zZm9ybT0ibWF0cml4KDAuNCwwLDAsMC40LDIuOTYsMC40KSIgc3R5bGU9ImZpbGw6I2ZmZmZmZjtmaWxsLW9wYWNpdHk6MTtmaWxsLXJ1bGU6ZXZlbm9kZDtzdHJva2U6I2ZmZmZmZjtzdHJva2Utd2lkdGg6MS4wMDAwMDAwM3B0O3N0cm9rZS1vcGFjaXR5OjEiIGQ9Im0gLTIuNSwtMSBjIDAsMi43NiAtMi4yNCw1IC01LDUgLTIuNzYsMCAtNSwtMi4yNCAtNSwtNSAwLC0yLjc2IDIuMjQsLTUgNSwtNSAyLjc2LDAgNSwyLjI0IDUsNSB6IiBpZD0icGF0aDQ2NDMiLz4KICAgIDwvbWFya2VyPgogICAgCiAgICAKICAgIDxjbGlwUGF0aCBpZD0iY2xpcFBhdGgxNjYtMSIgY2xpcFBhdGhVbml0cz0idXNlclNwYWNlT25Vc2UiPgogICAgICA8cGF0aCBpZD0icGF0aDE2NC0zIiBkPSJNIDAsMCBIIDU5NS4yNzYgViA4NDEuODkgSCAwIFoiLz4KICAgIDwvY2xpcFBhdGg+CiAgPC9kZWZzPgogIAogIDxtZXRhZGF0YSBpZD0ibWV0YWRhdGE1Ij4KICAgIAogICAgICAKICAgICAgICBpbWFnZS9zdmcreG1sCiAgICAgICAgCiAgICAgICAgCiAgICAgIAogICAgCiAgPC9tZXRhZGF0YT4KICA8ZyB0cmFuc2Zvcm09InRyYW5zbGF0ZSgtMTAzLjg0NzA3LC05MC41Mzg1NikiIGlkPSJsYXllcjEiPgogICAgPHBhdGggc3R5bGU9ImNvbG9yOiMwMDAwMDA7Zm9udC1zdHlsZTpub3JtYWw7Zm9udC12YXJpYW50Om5vcm1hbDtmb250LXdlaWdodDpub3JtYWw7Zm9udC1zdHJldGNoOm5vcm1hbDtmb250LXNpemU6bWVkaXVtO2xpbmUtaGVpZ2h0Om5vcm1hbDtmb250LWZhbWlseTpzYW5zLXNlcmlmO2ZvbnQtdmFyaWFudC1saWdhdHVyZXM6bm9ybWFsO2ZvbnQtdmFyaWFudC1wb3NpdGlvbjpub3JtYWw7Zm9udC12YXJpYW50LWNhcHM6bm9ybWFsO2ZvbnQtdmFyaWFudC1udW1lcmljOm5vcm1hbDtmb250LXZhcmlhbnQtYWx0ZXJuYXRlczpub3JtYWw7Zm9udC1mZWF0dXJlLXNldHRpbmdzOm5vcm1hbDt0ZXh0LWluZGVudDowO3RleHQtYWxpZ246c3RhcnQ7dGV4dC1kZWNvcmF0aW9uOm5vbmU7dGV4dC1kZWNvcmF0aW9uLWxpbmU6bm9uZTt0ZXh0LWRlY29yYXRpb24tc3R5bGU6c29saWQ7dGV4dC1kZWNvcmF0aW9uLWNvbG9yOiMwMDAwMDA7bGV0dGVyLXNwYWNpbmc6bm9ybWFsO3dvcmQtc3BhY2luZzpub3JtYWw7dGV4dC10cmFuc2Zvcm06bm9uZTt3cml0aW5nLW1vZGU6bHItdGI7ZGlyZWN0aW9uOmx0cjt0ZXh0LW9yaWVudGF0aW9uOm1peGVkO2RvbWluYW50LWJhc2VsaW5lOmF1dG87YmFzZWxpbmUtc2hpZnQ6YmFzZWxpbmU7dGV4dC1hbmNob3I6c3RhcnQ7d2hpdGUtc3BhY2U6bm9ybWFsO3NoYXBlLXBhZGRpbmc6MDtjbGlwLXJ1bGU6bm9uemVybztkaXNwbGF5OmlubGluZTtvdmVyZmxvdzp2aXNpYmxlO3Zpc2liaWxpdHk6dmlzaWJsZTtvcGFjaXR5OjE7aXNvbGF0aW9uOmF1dG87bWl4LWJsZW5kLW1vZGU6bm9ybWFsO2NvbG9yLWludGVycG9sYXRpb246c1JHQjtjb2xvci1pbnRlcnBvbGF0aW9uLWZpbHRlcnM6bGluZWFyUkdCO3NvbGlkLWNvbG9yOiMwMDAwMDA7c29saWQtb3BhY2l0eToxO3ZlY3Rvci1lZmZlY3Q6bm9uZTtmaWxsOiM0ZGJkMzg7ZmlsbC1vcGFjaXR5OjE7ZmlsbC1ydWxlOm5vbnplcm87c3Ryb2tlOm5vbmU7c3Ryb2tlLXdpZHRoOjY7c3Ryb2tlLWxpbmVjYXA6cm91bmQ7c3Ryb2tlLWxpbmVqb2luOm1pdGVyO3N0cm9rZS1taXRlcmxpbWl0OjQ7c3Ryb2tlLWRhc2hhcnJheTpub25lO3N0cm9rZS1kYXNob2Zmc2V0OjA7c3Ryb2tlLW9wYWNpdHk6MTtjb2xvci1yZW5kZXJpbmc6YXV0bztpbWFnZS1yZW5kZXJpbmc6YXV0bztzaGFwZS1yZW5kZXJpbmc6YXV0bzt0ZXh0LXJlbmRlcmluZzphdXRvO2VuYWJsZS1iYWNrZ3JvdW5kOmFjY3VtdWxhdGUiIGQ9Im0gMTc0LjYyNjczLDEwMS4yNDY5NSBhIDEuNTAwMTUsMS41MDAxNSAwIDAgMCAtMS4zOTY4MSwxLjEyMjkzIGMgLTAuMzc3MDMsMS40NTE1MiAtMS4xOTgwNywyLjUxMzA2IC0yLjU2MjY0LDMuNDg2NjEgLTEuMzY0NTgsMC45NzM1NSAtMy4yNzU1OCwxLjc5MDAyIC01LjU2ODEzLDIuNTA5OTIgLTQuNTg1MTUsMS40Mzk4MiAtMTAuNjQ4MzIsMi41MDE3NiAtMTYuODcxMzMsNC40Mjc2NCAtNi4yMjMwMSwxLjkyNTg4IC0xMi42NDYwNSw0Ljc0MDU2IC0xNy45MzEyLDkuODEyMzIgLTQuODQyNDUsNC42NDY5NCAtOC42NjcwNSwxMS4xODMyIC0xMC41MDQyNywyMC40MDk2MSBhIDMuMDAwMzAwMSwzLjAwMDMwMDEgMCAwIDAgLTAuMzA4NTEsMC4xMzMzMiBjIDAsMCAtNS44MjIyNSwzLjAxMSAtOS45OTYyOSwxMC44NDc5MiBhIDMuMDAwMzAwMSwzLjAwMDMwMDEgMCAxIDAgNS4yOTUyOSwyLjgyMjA1IGMgMy40Mzg5MywtNi40NTY3MiA3LjM3MzE5LC04LjI5NjY1IDcuMzczMTksLTguMjk2NjUgYSAzLjAwMDMwMDEsMy4wMDAzMDAxIDAgMCAwIDAuNDE3MDMsLTAuMjQ4MDUgYyAxMy4wNjA3Nyw1LjY5MDYzIDIzLjI2Mjk0LDYuNDIxNzIgMzEuMTUzMTQsMy45NTY4NiA4LjM2NTQ3LC0yLjYxMzMzIDEzLjkzODA4LC04Ljc4Mjg2IDE3LjQ4MjEzLC0xNS43ODcxNSAzLjU0NDA1LC03LjAwNDI4IDUuMTQyNTMsLTE0Ljg4MTgzIDUuNjg5NTgsLTIxLjMyMjIxIDAuMjczNTMsLTMuMjIwMTkgMC4yODE0LC02LjA3NzY4IDAuMTIwOTIsLTguMzE0MjIgLTAuMDgwMywtMS4xMTgyNyAtMC4yMDAxOSwtMi4wODEyOCAtMC4zNjMyOSwtMi44Nzk0MSAtMC4xNjMxMSwtMC43OTgxMiAtMC4yOTgxMSwtMS4zOTc3MiAtMC43NDIwNywtMi4wMzcwOCBhIDEuNTAwMTUsMS41MDAxNSAwIDAgMCAtMS4yODY3NCwtMC42NDQ0MSB6IG0gLTAuNjMwOTcsNS41MTc0OSBjIDAuMDA4LDAuMTAyMDIgMC4wMjM1LDAuMTUyMTcgMC4wMzEsMC4yNTc4NyAwLjEwNjQ3LDEuNDgzNjcgMC4xMzE5MywzLjMyOTcxIDAuMDM4OCw1LjQwNDMyIC0wLjg3OTY3LDEuMDQzNzYgLTIuMzUwNDgsMi42MDg2NCAtNC4yNTc2MiwzLjk0OTExIC0zLjE3MzU3LDIuMjMwNjEgLTcuMzQ0OTEsMy43ODIzOSAtMTIuMDQwNjEsMS4yOTcwOCAtMi41NjM1NywtMS4zNTY4NCAtNC43NzY2NywtMi4xNTYxNCAtNi42MTc2OCwtMi42MTEyMSA1LjMwMDU2LC0xLjQ5NTM3IDEwLjUwODQxLC0yLjQ2OTcyIDE0Ljg0NzY3LC0zLjgzMjMyIDIuNDQ2OSwtMC43NjgzOCA0LjYzMTQ5LC0xLjY1ODg2IDYuNDEyNTMsLTIuOTI5NTQgMC42MDk0NSwtMC40MzQ4MSAxLjA4NzU5LC0wLjk5NDc4IDEuNTg1OTUsLTEuNTM1MzEgeiBtIC0wLjA4NDcsOC4wNjQxMSBjIC0wLjAwMSwwLjAxMzQgLTAuMDAyLDAuMDI2MyAtMC4wMDMsMC4wMzk4IC0wLjE3MDU3LDIuMDA4MDkgLTAuNDU0MjEsNC4xNjY5MSAtMC44Njk3MSw2LjM4OTI4IC0xLjA1NzAxLDAuOTY2MDcgLTIuODU0MzksMi40MDcyNCAtNS4yMTQ2NywzLjUyMDcxIC0zLjg4NzU5LDEuODM0IC05LjE1MDg2LDIuNzY5MzkgLTE1LjE2MzkzLC0wLjg5MDkgLTMuNjY4MzQsLTIuMjMzIC04LjgwODY5LC0yLjU4OTE4IC0xMy4wNTQ1LC0yLjQ1ODc3IC0xLjIzNzU5LDAuMDM4IC0yLjM4NDYyLDAuMTIyODQgLTMuNDEyNzIsMC4yMjE3IDMuNjE3NzEsLTIuNTIwMyA3LjYzNTA4LC00LjI2MjIgMTEuNzA5MzcsLTUuNjAxNzMgMC4wNTQzLDAuMDA0IDAuMTAwNjEsMC4wMDQgMC4xNTY1OCwwLjAwOSAyLjAwMzkzLDAuMTYwOTUgNS4wMjc4NCwwLjgzNDk3IDkuMDA3NzIsMi45NDE0MyA1LjI1OTgsMi43ODM4OCAxMC4xNzc0MiwxLjAxMzExIDEzLjYwNTM3LC0xLjM5NjMgMS4yNzU3NSwtMC44OTY2OSAyLjM2ODg4LC0xLjg4NTQgMy4yMzk1OSwtMi43NzM5OSB6IG0gLTMyLjcwNjUzLDguMTMwMjUgYyAyLjE0NzMxLDAuMDEyNCA0LjM4OTE0LDAuMTk4NDggNi40NzUwNiwwLjY3NDkgMC4xMzQ0OCw1LjE0NTc2IDEuNjQwNDUsOC40MDQ1NCA0LjAyOTIxLDEwLjEyODU4IDIuNTAwMDIsMS44MDQzMyA1LjczNTk1LDEuOTEzNyA4Ljg1NTI3LDEuMzQ5NzkgMy42MDIzOCwtMC42NTEyNCA3LjE0MjI4LC0yLjIxNTEgOS40OTcwOSwtMy40MjI1MyAtMC40NjI5MywxLjE1NDU1IC0wLjk2ODY5LDIuMjkyNzMgLTEuNTI4NTgsMy4zOTkyNyAtMC40NzE1NywwLjkzMTk4IC0wLjk3Nzk1LDEuODQwOTMgLTEuNTE5ODEsMi43MjI4MyAtMC4yNDU4MywwLjExMzQ2IC0wLjUwNjE2LDAuMjMxNDYgLTAuODA3NywwLjM1OTE1IC0xLjQxMzgyLDAuNTk4NzIgLTMuNDA4MTIsMS4zMTM4IC01LjY5MzcxLDEuNzc5MjIgLTQuNTcxMTcsMC45MzA4MyAtMTAuMjM5MTIsMC44NzI5MyAtMTQuOTY4NiwtMi45NzI0MiAtMC4wMDQsLTAuMDA0IC0wLjAwOSwtMC4wMDQgLTAuMDEzNCwtMC4wMDggbCAwLjAwMiwtMC4wMDIgYyAtMS4zMzE2OSwtMS4wNDE2NiAtMi42ODQyNiwtMy4yNjcgLTMuNjU4MTcsLTUuOTcyNzcgLTAuODg3NzUsLTIuNDY2NCAtMS40Mjg0NywtNS4zMTUyOCAtMS41ODE4MiwtOC4wMzE1NSAwLjMwMjE4LC0wLjAwNSAwLjYwNjg4LC0wLjAwNiAwLjkxMzY0LC0wLjAwNSB6IG0gLTIuNDExNzQsMC4wNiBjIDAuMDkwMiwxLjYzODU2IDAuMzI2OCwzLjI3MjUyIDAuNjkwOTEsNC44OTIyMSAtNC4zNzkxOSwtMC4yNTAyNyAtOC40Njg3OSwwLjc5MDggLTExLjE5MjU5LDEuNzM5OTQgMS4yMzUxOSwtMS44NDc3MiAyLjYwNjAxLC0zLjQ2MjUxIDQuMDgzNDcsLTQuODgwMzIgMC40NjYxMiwtMC40NDczMSAwLjk0NjAyLC0wLjg3MDc4IDEuNDMyNDcsLTEuMjgyMDkgMS4yMjU1NCwtMC4xNTM5OCAzLjAwOTMzLC0wLjM1Mjc4IDQuOTg1NzQsLTAuNDY5NzQgeiBtIDMzLjc1ODE1LDAuNjAyMDMgYyAtMC40NDc4MiwxLjk2OTM0IC0xLjAwODM4LDMuOTYzNjMgLTEuNjkwODYsNS45MjkzNSAtMi4wMjkwMiwxLjEzMzY0IC02LjMyNTgxLDMuMzIxNTggLTEwLjU2MzE4LDQuMDg3NjEgLTIuOTA0MjUsMC41MjUwMyAtNS42OTIxNywwLjM2NTIzIC03LjcxMTE1LC0xLjA5MTkyIC0xLjg3MjM0LC0xLjM1MTMyIC0zLjE5MjA1LC0zLjk3NTc1IC0zLjM4Mjc0LC04LjU2Mjc5IDAuOTc1NSwwLjMxMDg5IDEuODgxNDMsMC43MDExNiAyLjY3Nzg3LDEuMTg1OTcgNi40NDk4MywzLjkyNjE1IDEyLjM4NjIzLDIuOTQ1NjggMTYuNTgxOTMsMC45NjYzNSAxLjYyNTcyLC0wLjc2NjkzIDMuMDA0NDMsLTEuNjgwOTUgNC4wODgxMywtMi41MTQ1NyB6IG0gLTM0LjcyMjk1LDUuNzAyNDkgYyAwLjY3ODExLC0wLjAxMDUgMS4zNjU3NywwLjAwOSAyLjA1ODI3LDAuMDY2MSAwLjE5NjA5LDAuNzA1NTggMC4zMzY2OCwxLjQ1MDE5IDAuNTc2MiwyLjExNTYzIDAuNDQ5OTIsMS4yNTAwMyAwLjk5NDY2LDIuMzYzNSAxLjU3ODIsMy4zOTQxMSAtNC4yMzU3OCwtMS44OTA2NiAtOC42NDcxLC0xLjU4ODcgLTEyLjIwNDk1LC0wLjU3MjA2IC0xLjkzMzI0LDAuNTUyNDIgLTMuNjMxNjUsMS4yOTE1MiAtNC45NTA2LDEuOTYwMDkgMC42MzE1OSwtMS42NDEzNyAxLjM0MzE5LC0zLjE1MjQgMi4xMjQ0MiwtNC41NDU5OCAyLjA1OTc0LC0wLjg3MDY0IDYuMjA2MDYsLTIuMzQ2NjggMTAuODE4NDYsLTIuNDE3OTQgeiBtIC0yLjI1MTU0LDUuNzM2NiBjIDIuOTgzMSwtMC4wMTgzIDYuMTA4OTUsMC43MTU3OCA5LjAxODU3LDMuMDgxNDcgMC4wMDMsMC4wMDMgMC4wMDcsMC4wMDMgMC4wMTAzLDAuMDA2IDhlLTQsNS4zZS00IDAuMDAxLDAuMDAxIDAuMDAyLDAuMDAyIDUuMTc3Myw0LjIwMjAxIDExLjM4MjM1LDQuMjUzMjkgMTYuMjAzMTUsMy4yNzE2MyAxLjc3ODA2LC0wLjM2MjA3IDMuMzc0ODIsLTAuODYzMSA0LjY4NzU3LC0xLjM1MzQgLTIuMTE5MzYsMi44ODc5NiAtNC43MDc4NCw1LjM3MDczIC03Ljg2ODc4LDcuMTk4IC0zLjAzMDM1LDAuODY5ODEgLTYuNDA1NywwLjYyMDUyIC05LjczMTE4LC0wLjU4NzA0IC01LjA0NzI5LC0xLjgzMjc4IC05Ljg0MzIyLC01Ljk2MTc2IC0xMi45MTYwMSwtMTEuNjA1NDkgMC4xOTc1LC0wLjAwOCAwLjM5NTQsLTAuMDEyMiAwLjU5NDI4LC0wLjAxMzQgeiBtIC0yLjI5MzkyLDAuMDkzNSBjIDAuOTY1NzMsMS44OTM3MiAyLjEzOTk1LDMuNTg0MDkgMy40MzM5LDUuMTQwNzcgLTMuNTI0OTksLTAuNzIyNDEgLTcuMTY4MDcsMC4xNTcxMiAtMTAuMTAxNzEsMS4zOTgzNiAtMS40NDc4NCwwLjYxMjU5IC0yLjcyMjYxLDEuMjk2NTUgLTMuNzQ3MDYsMS45MDI3MyBhIDMuMDAwMzAwMSwzLjAwMDMwMDEgMCAwIDAgLTAuMDUyNywtMC4wNDg2IGMgMC4zNjc1LC0xLjgzNDg3IDAuODExNjQsLTMuNTQ5MzEgMS4zMjY1NCwtNS4xNDkwNCAxLjI4Nzg0LC0wLjc1MTg4IDMuNDY2NTcsLTEuODc1MDYgNi4xMDYwOSwtMi42MjkyOSAwLjk2MDA5LC0wLjI3NDM0IDEuOTg2OTMsLTAuNDczOTMgMy4wMzQ5NSwtMC42MTQ5NSB6IG0gMS41NzgyLDYuNDA2ODQgYyAxLjI2NTA0LDAuMDIyIDIuNTE0ODIsMC4yNTk1NCAzLjcwOTM0LDAuODIxNjYgbCAwLjAxMTQsLTAuMDI1MyBjIDIuNjQwNDEsMi41OTA3MiA1LjY1MDksNC41ODUyIDguODA0NjMsNS43MzAzOSAxLjkxMTQ5LDAuNjk0MTEgMy44Njg0NiwxLjA5MjggNS43OTE5LDEuMTY3MzggLTAuMTE1NDMsMC4wMzc5IC0wLjIyOTU4LDAuMDc3MiAtMC4zNDYyNCwwLjExMzY4IC0zLjUzMjk1LDEuMTAzNjggLTcuNjg5MjksMS40ODg0OCAtMTIuNTUwMTMsMC45MDE3NiAtMC45OTc3NywtMC4zMDI0OSAtMS44OTc1MiwtMC42ODk2IC0yLjc3NCwtMS4xOTI2OSAtMi4xODc2MiwtMS4yNTU3MSAtNC40MzIwMywtMy40NzQ3MSAtNy41MTk5NSwtNi43NjU0OCAxLjU5NDMxLC0wLjQ1MTg5IDMuMjQ2NjEsLTAuNzc5NzIgNC44NzMwOSwtMC43NTEzOCB6IG0gLTYuNTI3MjUsMS4yMDI1MSBjIDIuNzUyMjcsMi45NTc2NSA0LjgyNjEzLDUuMDkyOSA2Ljg2NTIxLDYuNTkwODEgLTMuNDcwMSwtMC44MjA2NCAtNy4yNDk0NCwtMi4wODc4NCAtMTEuMzYzNjQsLTMuODc0NjkgYSAzLjAwMDMwMDEsMy4wMDAzMDAxIDAgMCAwIC0wLjE0MjExLC0wLjYzMDk3IGMgMC45NjMwMSwtMC41NjY5MyAyLjE1NjQ1LC0xLjIwMzY4IDMuNTA1NzMsLTEuNzc0NTcgMC4zNDc2NCwtMC4xNDcwOSAwLjc3MTExLC0wLjE3NjEyIDEuMTM0ODEsLTAuMzEwNTggeiIgaWQ9InBhdGgxMTAwOSIvPgogIDwvZz4KPC9zdmc+;imageBorder=none;imageBackground=none;fontFamily=CMU Sans Serif;strokeWidth=0.4;fontSize=11;" parent="1" vertex="1">
          <mxGeometry x="590" y="375" width="50" height="50" as="geometry" />
        </mxCell>
        <mxCell id="91" value="&lt;h1 style=&quot;margin-top: 0px;&quot;&gt;Introduction&lt;/h1&gt;" style="text;html=1;whiteSpace=wrap;overflow=hidden;rounded=0;fontFamily=CMU Sans Serif;" parent="1" vertex="1">
          <mxGeometry x="16.04" y="104" width="180" height="50" as="geometry" />
        </mxCell>
        <mxCell id="92" style="edgeStyle=orthogonalEdgeStyle;rounded=0;orthogonalLoop=1;jettySize=auto;html=1;exitX=1;exitY=0.5;exitDx=0;exitDy=0;fontFamily=CMU Sans Serif;strokeWidth=0.4;fontSize=11;" parent="1" source="93" edge="1">
          <mxGeometry relative="1" as="geometry">
            <mxPoint x="240" y="765" as="targetPoint" />
            <Array as="points">
              <mxPoint x="159" y="765" />
            </Array>
          </mxGeometry>
        </mxCell>
        <mxCell id="93" value="OCEL 2.0" style="shape=datastore;whiteSpace=wrap;html=1;fontFamily=CMU Sans Serif;fontSize=11;strokeWidth=0.4;" parent="1" vertex="1">
          <mxGeometry x="79" y="730" width="80" height="70" as="geometry" />
        </mxCell>
        <mxCell id="94" value="sOCEL" style="shape=datastore;whiteSpace=wrap;html=1;fontFamily=CMU Sans Serif;fontSize=11;rounded=1;strokeColor=#327A24;align=center;verticalAlign=middle;fontColor=#327A24;fillColor=#4DBD38;gradientColor=none;strokeOpacity=100;fillOpacity=25;strokeWidth=0.4;" parent="1" vertex="1">
          <mxGeometry x="79" y="870" width="80" height="70" as="geometry" />
        </mxCell>
        <mxCell id="95" value="import" style="text;html=1;align=center;verticalAlign=middle;whiteSpace=wrap;rounded=0;fontStyle=1;fontFamily=CMU Sans Serif;strokeWidth=0.4;fontSize=11;" parent="1" vertex="1">
          <mxGeometry x="160" y="745" width="80" height="20" as="geometry" />
        </mxCell>
        <mxCell id="96" value="" style="endArrow=classic;html=1;rounded=0;entryX=1;entryY=0.5;entryDx=0;entryDy=0;fontFamily=CMU Sans Serif;strokeWidth=0.4;fontSize=11;" parent="1" target="94" edge="1">
          <mxGeometry width="50" height="50" relative="1" as="geometry">
            <mxPoint x="240" y="905" as="sourcePoint" />
            <mxPoint x="669" y="740" as="targetPoint" />
          </mxGeometry>
        </mxCell>
        <mxCell id="97" value="export" style="text;html=1;align=center;verticalAlign=middle;whiteSpace=wrap;rounded=0;fontStyle=1;fontFamily=CMU Sans Serif;strokeWidth=0.4;fontSize=11;" parent="1" vertex="1">
          <mxGeometry x="160" y="885" width="80" height="20" as="geometry" />
        </mxCell>
        <mxCell id="98" value="" style="group;strokeColor=#327A24;strokeWidth=0.4;fillColor=default;container=0;fontFamily=CMU Sans Serif;fontSize=11;" parent="1" vertex="1" connectable="0">
          <mxGeometry x="240" y="720" width="430" height="230" as="geometry" />
        </mxCell>
        <mxCell id="101" value="&lt;div style=&quot;font-size: 11px;&quot;&gt;&lt;/div&gt;" style="rounded=0;whiteSpace=wrap;html=1;strokeColor=#666666;strokeWidth=0.4;fontSize=11;fontColor=#333333;fillColor=#f5f5f5;fontFamily=CMU Sans Serif;" parent="1" vertex="1">
          <mxGeometry x="248.26" y="742" width="231.16" height="93" as="geometry" />
        </mxCell>
        <mxCell id="102" value="define" style="text;html=1;align=right;verticalAlign=middle;whiteSpace=wrap;rounded=0;fontStyle=1;fontFamily=CMU Sans Serif;strokeWidth=0.4;fontSize=9;fontColor=#00549F;" parent="1" vertex="1">
          <mxGeometry x="307.74" y="720" width="52.26" height="20" as="geometry" />
        </mxCell>
        <mxCell id="103" value="" style="group;fontFamily=CMU Sans Serif;strokeWidth=0.4;fontSize=11;" parent="1" vertex="1" connectable="0">
          <mxGeometry x="544.5" y="773.3600000000001" width="95" height="98.5" as="geometry" />
        </mxCell>
        <mxCell id="104" value="&lt;font style=&quot;font-size: 11px;&quot;&gt;Emissions per&lt;/font&gt;" style="rounded=0;whiteSpace=wrap;html=1;fontFamily=CMU Sans Serif;fontSize=11;labelPosition=center;verticalLabelPosition=middle;align=center;verticalAlign=bottom;spacing=0;spacingBottom=0;strokeWidth=0.4;" parent="103" vertex="1">
          <mxGeometry width="95" height="56.28571428571429" as="geometry" />
        </mxCell>
        <mxCell id="105" value="&lt;font style=&quot;font-size: 9px;&quot;&gt;Event&lt;/font&gt;" style="rounded=0;whiteSpace=wrap;html=1;align=center;fontSize=9;fontFamily=CMU Sans Serif;spacing=0;spacingLeft=0;verticalAlign=middle;spacingRight=0;strokeWidth=0.4;" parent="103" vertex="1">
          <mxGeometry y="56.28571428571429" width="47.5" height="21.107142857142858" as="geometry" />
        </mxCell>
        <mxCell id="106" value="Activity" style="rounded=0;whiteSpace=wrap;html=1;align=center;fontSize=9;fontFamily=CMU Sans Serif;spacing=0;spacingLeft=0;verticalAlign=middle;spacingRight=0;strokeWidth=0.4;" parent="103" vertex="1">
          <mxGeometry y="77.39285714285715" width="47.5" height="21.107142857142858" as="geometry" />
        </mxCell>
        <mxCell id="107" value="Object" style="rounded=0;whiteSpace=wrap;html=1;align=center;fontSize=9;fontFamily=CMU Sans Serif;spacing=0;spacingRight=0;spacingLeft=0;verticalAlign=middle;strokeWidth=0.4;" parent="103" vertex="1">
          <mxGeometry x="47.5" y="56.28571428571429" width="47.5" height="21.107142857142858" as="geometry" />
        </mxCell>
        <mxCell id="108" value="total" style="rounded=0;whiteSpace=wrap;html=1;align=center;fontSize=9;fontFamily=CMU Sans Serif;spacing=0;spacingRight=0;spacingLeft=0;verticalAlign=middle;strokeWidth=0.4;" parent="103" vertex="1">
          <mxGeometry x="47.5" y="77.39285714285715" width="47.5" height="21.107142857142858" as="geometry" />
        </mxCell>
        <mxCell id="109" value="" style="group;fontFamily=CMU Sans Serif;fontSize=11;strokeWidth=0.4;" parent="103" vertex="1" connectable="0">
          <mxGeometry x="25.53125" y="7.0357142857142865" width="43.9375" height="28.142857142857146" as="geometry" />
        </mxCell>
        <mxCell id="110" value="" style="rounded=0;whiteSpace=wrap;html=1;fillColor=#F89C0E;fontFamily=CMU Sans Serif;fontSize=11;strokeWidth=0.4;" parent="109" vertex="1">
          <mxGeometry width="8.3125" height="28.142857142857146" as="geometry" />
        </mxCell>
        <mxCell id="111" value="" style="rounded=0;whiteSpace=wrap;html=1;fillColor=#F89C0E;fontFamily=CMU Sans Serif;fontSize=11;strokeWidth=0.4;" parent="109" vertex="1">
          <mxGeometry x="11.875" y="14.071428571428573" width="8.3125" height="14.071428571428573" as="geometry" />
        </mxCell>
        <mxCell id="112" value="" style="rounded=0;whiteSpace=wrap;html=1;fillColor=#F89C0E;fontFamily=CMU Sans Serif;fontSize=11;strokeWidth=0.4;" parent="109" vertex="1">
          <mxGeometry x="23.75" y="8.442857142857143" width="8.3125" height="19.700000000000003" as="geometry" />
        </mxCell>
        <mxCell id="113" value="" style="rounded=0;whiteSpace=wrap;html=1;fillColor=#F89C0E;fontFamily=CMU Sans Serif;fontSize=11;strokeWidth=0.4;" parent="109" vertex="1">
          <mxGeometry x="35.625" width="8.3125" height="28.142857142857146" as="geometry" />
        </mxCell>
        <mxCell id="114" value="" style="edgeStyle=none;html=1;exitX=0.75;exitY=1;exitDx=0;exitDy=0;entryX=0.5;entryY=0;entryDx=0;entryDy=0;labelBackgroundColor=none;fontFamily=CMU Sans Serif;fontSize=11;fontColor=#000000;strokeColor=#00549F;strokeWidth=0.4;" parent="1" target="104" edge="1">
          <mxGeometry y="10" relative="1" as="geometry">
            <mxPoint as="offset" />
            <mxPoint x="591.5" y="710" as="sourcePoint" />
            <mxPoint x="797" y="755" as="targetPoint" />
          </mxGeometry>
        </mxCell>
        <mxCell id="115" value="view, select" style="text;html=1;align=center;verticalAlign=middle;whiteSpace=wrap;rounded=0;fontStyle=1;fontFamily=CMU Sans Serif;strokeWidth=0.4;fontSize=9;fontColor=#00549F;" parent="1" vertex="1">
          <mxGeometry x="589" y="719" width="80" height="30" as="geometry" />
        </mxCell>
        <mxCell id="116" value="&lt;h1 style=&quot;margin-top: 0px;&quot;&gt;Method Introduction&lt;/h1&gt;" style="text;html=1;whiteSpace=wrap;overflow=hidden;rounded=0;fontFamily=CMU Sans Serif;" parent="1" vertex="1">
          <mxGeometry x="11.04" y="534" width="250" height="50" as="geometry" />
        </mxCell>
        <mxCell id="117" value="" style="shape=step;perimeter=stepPerimeter;fixedSize=1;points=[];whiteSpace=wrap;html=1;rotation=90;fillColor=#f5f5f5;fontColor=#333333;strokeColor=#666666;fontFamily=CMU Sans Serif;strokeWidth=0.4;fontSize=11;" parent="1" vertex="1">
          <mxGeometry x="286.7850000000001" y="167" width="123.75" height="190" as="geometry" />
        </mxCell>
        <mxCell id="118" value="1. Emission Estimation" style="text;html=1;align=center;verticalAlign=middle;whiteSpace=wrap;rounded=0;fontSize=11;fontFamily=CMU Sans Serif;strokeWidth=0.4;fontStyle=1" parent="1" vertex="1">
          <mxGeometry x="271.74" y="222.12" width="153.84" height="30" as="geometry" />
        </mxCell>
        <mxCell id="119" value="" style="shape=step;perimeter=stepPerimeter;fixedSize=1;points=[];whiteSpace=wrap;html=1;rotation=0;size=40.00000000000023;strokeColor=none;fillColor=#4DBD38;fontFamily=CMU Sans Serif;strokeWidth=0.4;fontSize=11;" parent="1" vertex="1">
          <mxGeometry x="466.74" y="209.73000000000002" width="50" height="200.27" as="geometry" />
        </mxCell>
        <mxCell id="120" value="Visualization" style="text;html=1;align=center;verticalAlign=middle;whiteSpace=wrap;rounded=0;fontStyle=1;fontSize=11;fontFamily=CMU Sans Serif;strokeWidth=0.4;" parent="1" vertex="1">
          <mxGeometry x="521.74" y="222.12" width="130" height="30" as="geometry" />
        </mxCell>
        <mxCell id="121" value="observed events" style="text;html=1;align=center;verticalAlign=middle;whiteSpace=wrap;rounded=0;strokeColor=default;fontFamily=CMU Sans Serif;strokeWidth=0.4;fontSize=11;fillColor=default;" parent="1" vertex="1">
          <mxGeometry x="263.03999999999996" y="254.98000000000002" width="52.7" height="41" as="geometry" />
        </mxCell>
        <mxCell id="122" value="" style="rounded=0;whiteSpace=wrap;html=1;fontFamily=CMU Sans Serif;fontSize=11;labelPosition=center;verticalLabelPosition=middle;align=center;verticalAlign=bottom;spacing=0;spacingBottom=0;strokeWidth=0.4;" parent="1" vertex="1">
          <mxGeometry x="525" y="257.22" width="115" height="113.64" as="geometry" />
        </mxCell>
        <mxCell id="123" value="" style="group;fontFamily=CMU Sans Serif;fontSize=11;strokeWidth=0.4;" parent="1" vertex="1" connectable="0">
          <mxGeometry x="555.90625" y="270.40857142857146" width="53.1875" height="32.754285714285714" as="geometry" />
        </mxCell>
        <mxCell id="124" value="" style="rounded=0;whiteSpace=wrap;html=1;fillColor=#F89C0E;fontFamily=CMU Sans Serif;fontSize=11;strokeWidth=0.4;" parent="123" vertex="1">
          <mxGeometry width="10.0625" height="32.754285714285714" as="geometry" />
        </mxCell>
        <mxCell id="125" value="" style="rounded=0;whiteSpace=wrap;html=1;fillColor=#F89C0E;fontFamily=CMU Sans Serif;fontSize=11;strokeWidth=0.4;" parent="123" vertex="1">
          <mxGeometry x="14.375" y="16.377142857142857" width="10.0625" height="16.377142857142857" as="geometry" />
        </mxCell>
        <mxCell id="126" value="" style="rounded=0;whiteSpace=wrap;html=1;fillColor=#F89C0E;fontFamily=CMU Sans Serif;fontSize=11;strokeWidth=0.4;" parent="123" vertex="1">
          <mxGeometry x="28.75" y="9.826285714285714" width="10.0625" height="22.928" as="geometry" />
        </mxCell>
        <mxCell id="127" value="" style="rounded=0;whiteSpace=wrap;html=1;fillColor=#F89C0E;fontFamily=CMU Sans Serif;fontSize=11;strokeWidth=0.4;" parent="123" vertex="1">
          <mxGeometry x="43.125" width="10.0625" height="32.754285714285714" as="geometry" />
        </mxCell>
        <mxCell id="128" value="Show emission data in the context of the executed process" style="text;html=1;align=center;verticalAlign=middle;whiteSpace=wrap;rounded=0;fontSize=9;fontFamily=CMU Sans Serif;strokeWidth=0.4;" parent="1" vertex="1">
          <mxGeometry x="527" y="325.86" width="110" height="41" as="geometry" />
        </mxCell>
        <mxCell id="129" value="Emission Data" style="text;html=1;align=center;verticalAlign=middle;whiteSpace=wrap;rounded=0;fontSize=11;fontFamily=CMU Sans Serif;strokeWidth=0.4;fontStyle=0" parent="1" vertex="1">
          <mxGeometry x="528.3199999999999" y="304.72" width="108.68" height="21.02" as="geometry" />
        </mxCell>
        <mxCell id="130" value="" style="shape=step;perimeter=stepPerimeter;fixedSize=1;points=[];whiteSpace=wrap;html=1;rotation=90;fillColor=#f5f5f5;fontColor=#333333;strokeColor=#666666;fontFamily=CMU Sans Serif;strokeWidth=0.4;fontSize=11;" parent="1" vertex="1">
          <mxGeometry x="286.7850000000001" y="280.12" width="123.75" height="190" as="geometry" />
        </mxCell>
        <mxCell id="131" value="2. Emission Allocation" style="text;html=1;align=center;verticalAlign=middle;whiteSpace=wrap;rounded=0;fontSize=11;fontFamily=CMU Sans Serif;strokeWidth=0.4;fontStyle=1" parent="1" vertex="1">
          <mxGeometry x="266.74" y="331.12" width="163.84" height="30" as="geometry" />
        </mxCell>
        <mxCell id="132" value="" style="html=1;verticalLabelPosition=middle;align=left;labelBackgroundColor=none;verticalAlign=middle;strokeWidth=0.4;strokeColor=#9C9E9F;shadow=0;dashed=0;shape=mxgraph.ios7.icons.lightbulb;fontFamily=CMU Sans Serif;fontSize=11;fillColor=#FFF59B;labelPosition=right;spacingLeft=0;spacing=2;fontColor=#9C9E9F;" parent="1" vertex="1">
          <mxGeometry x="257.5" y="207.12" width="15" height="20" as="geometry" />
        </mxCell>
        <mxCell id="133" value="RG2" style="text;html=1;align=center;verticalAlign=middle;whiteSpace=wrap;rounded=0;fontColor=#9C9E9F;fontSize=9;fontFamily=CMU Sans Serif;strokeWidth=0.4;" parent="1" vertex="1">
          <mxGeometry x="260.74" y="215.12" width="40" height="20" as="geometry" />
        </mxCell>
        <mxCell id="134" value="Emission Rules" style="text;html=1;align=center;verticalAlign=middle;whiteSpace=wrap;rounded=0;fontSize=11;fontFamily=CMU Sans Serif;strokeWidth=0.4;" parent="1" vertex="1">
          <mxGeometry x="278.84000000000015" y="743.5" width="160" height="15" as="geometry" />
        </mxCell>
        <mxCell id="135" value="Obj. attributes" style="rounded=0;whiteSpace=wrap;html=1;fontSize=9;strokeColor=#9C9E9F;fontFamily=CMU Sans Serif;strokeWidth=0.4;align=right;spacingRight=30;" parent="1" vertex="1">
          <mxGeometry x="255.57999999999993" y="816" width="100" height="13" as="geometry" />
        </mxCell>
        <mxCell id="136" value="Event emissions" style="rounded=0;whiteSpace=wrap;html=1;fontSize=11;fontFamily=CMU Sans Serif;strokeWidth=0.4;fillOpacity=25;fillColor=#4DBD38;align=right;spacingRight=6;" parent="1" vertex="1">
          <mxGeometry x="370" y="769" width="102" height="20" as="geometry" />
        </mxCell>
        <mxCell id="137" value="Object type" style="rounded=0;whiteSpace=wrap;html=1;fontSize=9;strokeColor=#9C9E9F;fontFamily=CMU Sans Serif;strokeWidth=0.4;align=right;spacingRight=30;" parent="1" vertex="1">
          <mxGeometry x="255.57999999999993" y="799" width="100" height="13" as="geometry" />
        </mxCell>
        <mxCell id="138" value="Activity" style="rounded=0;whiteSpace=wrap;html=1;fontSize=9;strokeColor=#9C9E9F;fontFamily=CMU Sans Serif;strokeWidth=0.4;align=right;spacingRight=30;" parent="1" vertex="1">
          <mxGeometry x="255.57999999999993" y="766" width="100" height="13" as="geometry" />
        </mxCell>
        <mxCell id="139" value="Ev. attributes" style="rounded=0;whiteSpace=wrap;html=1;fontSize=9;strokeColor=#9C9E9F;fontFamily=CMU Sans Serif;strokeWidth=0.4;align=right;spacingRight=30;" parent="1" vertex="1">
          <mxGeometry x="255.57999999999993" y="783" width="100" height="13" as="geometry" />
        </mxCell>
        <mxCell id="140" value="E2O emissions" style="rounded=0;whiteSpace=wrap;html=1;fontSize=11;fontFamily=CMU Sans Serif;strokeWidth=0.4;fillOpacity=25;fillColor=#4DBD38;align=right;spacingRight=6;" parent="1" vertex="1">
          <mxGeometry x="360" y="802" width="111" height="20" as="geometry" />
        </mxCell>
        <mxCell id="141" value="" style="group;fontFamily=CMU Sans Serif;strokeWidth=0.4;fontSize=11;" parent="1" vertex="1" connectable="0">
          <mxGeometry x="327.3499999999999" y="767.81" width="52.65" height="70.19" as="geometry" />
        </mxCell>
        <mxCell id="142" value="" style="shape=step;perimeter=stepPerimeter;fixedSize=1;points=[];whiteSpace=wrap;html=1;rotation=0;size=10.650000000000091;strokeColor=none;fillColor=#4DBD38;fontFamily=CMU Sans Serif;strokeWidth=0.4;fontSize=11;" parent="141" vertex="1">
          <mxGeometry x="7" y="-6" width="52.64999999999997" height="70.18999999999994" as="geometry" />
        </mxCell>
        <mxCell id="143" value="&lt;font color=&quot;#ffffff&quot; style=&quot;forced-color-adjust: none; font-variant-ligatures: normal; font-variant-caps: normal; font-weight: 400; letter-spacing: normal; orphans: 2; text-align: center; text-indent: 0px; text-transform: none; widows: 2; word-spacing: 0px; -webkit-text-stroke-width: 0px; white-space: normal; text-decoration-thickness: initial; text-decoration-style: initial; text-decoration-color: initial; font-size: 11px;&quot;&gt;&lt;i style=&quot;font-size: 11px;&quot;&gt;emission&lt;/i&gt;&lt;/font&gt;&lt;div style=&quot;forced-color-adjust: none; color: rgb(0, 0, 0); font-variant-ligatures: normal; font-variant-caps: normal; font-weight: 400; letter-spacing: normal; orphans: 2; text-align: center; text-indent: 0px; text-transform: none; widows: 2; word-spacing: 0px; -webkit-text-stroke-width: 0px; white-space: normal; text-decoration-thickness: initial; text-decoration-style: initial; text-decoration-color: initial; font-size: 11px;&quot;&gt;&lt;font color=&quot;#ffffff&quot; style=&quot;forced-color-adjust: none; font-size: 11px;&quot;&gt;&lt;i style=&quot;font-size: 11px;&quot;&gt;&amp;nbsp;factor&lt;/i&gt;&lt;/font&gt;&lt;/div&gt;" style="text;whiteSpace=wrap;html=1;rotation=90;fillColor=none;verticalAlign=bottom;fontFamily=CMU Sans Serif;strokeWidth=0.4;fontSize=11;" parent="141" vertex="1">
          <mxGeometry x="7.177800953516048" y="14.095000000000013" width="52.29439809296779" height="29.999999999999975" as="geometry" />
        </mxCell>
        <mxCell id="145" value="&lt;div style=&quot;font-size: 11px;&quot;&gt;&lt;/div&gt;" style="rounded=0;whiteSpace=wrap;html=1;strokeColor=#666666;strokeWidth=0.4;fontSize=11;fontColor=#333333;fillColor=#f5f5f5;fontFamily=CMU Sans Serif;" parent="1" vertex="1">
          <mxGeometry x="248.26" y="852" width="231.16" height="91" as="geometry" />
        </mxCell>
        <mxCell id="146" value="&lt;font style=&quot;font-size: 11px;&quot;&gt;Total event emissions&lt;/font&gt;" style="rounded=0;whiteSpace=wrap;html=1;fontSize=11;strokeColor=#327A24;align=center;verticalAlign=middle;fontFamily=CMU Sans Serif;fontColor=default;fillColor=#4DBD38;gradientColor=none;strokeOpacity=100;fillOpacity=25;strokeWidth=0.4;" parent="1" vertex="1">
          <mxGeometry x="254.79999999999995" y="860" width="218.08" height="14" as="geometry" />
        </mxCell>
        <mxCell id="147" value="aggregate" style="text;html=1;align=center;verticalAlign=middle;whiteSpace=wrap;rounded=0;fontStyle=1;fontSize=11;fontColor=#000000;fontFamily=CMU Sans Serif;strokeWidth=0.4;" parent="1" vertex="1">
          <mxGeometry x="312.0000000000002" y="830.8600000000001" width="38.58" height="25" as="geometry" />
        </mxCell>
        <mxCell id="148" style="edgeStyle=orthogonalEdgeStyle;rounded=0;orthogonalLoop=1;jettySize=auto;html=1;exitX=1;exitY=0.5;exitDx=0;exitDy=0;endArrow=classic;endFill=1;entryX=0.5;entryY=0;entryDx=0;entryDy=0;fontFamily=CMU Sans Serif;strokeWidth=0.4;fontSize=11;" parent="1" source="140" target="146" edge="1">
          <mxGeometry relative="1" as="geometry">
            <mxPoint x="472" y="772" as="sourcePoint" />
            <mxPoint x="415" y="838" as="targetPoint" />
            <Array as="points">
              <mxPoint x="492" y="812" />
              <mxPoint x="492" y="843" />
              <mxPoint x="364" y="843" />
              <mxPoint x="364" y="860" />
            </Array>
          </mxGeometry>
        </mxCell>
        <mxCell id="149" value="&lt;font style=&quot;font-size: 11px;&quot;&gt;Object emissions&lt;/font&gt;" style="rounded=0;whiteSpace=wrap;html=1;fontSize=11;strokeColor=#327A24;align=center;verticalAlign=middle;fontFamily=CMU Sans Serif;fontColor=default;fillColor=#4DBD38;gradientColor=none;strokeOpacity=100;fillOpacity=25;strokeWidth=0.4;" parent="1" vertex="1">
          <mxGeometry x="254.79999999999995" y="923" width="218.08" height="14" as="geometry" />
        </mxCell>
        <mxCell id="150" value="" style="shape=step;perimeter=stepPerimeter;fixedSize=1;points=[];whiteSpace=wrap;html=1;rotation=90;size=10.650000000000091;strokeColor=none;fillColor=#4DBD38;fontFamily=CMU Sans Serif;strokeWidth=0.4;fontSize=11;" parent="1" vertex="1">
          <mxGeometry x="341.34000000000015" y="790.0999999999999" width="39.14" height="218.14" as="geometry" />
        </mxCell>
        <mxCell id="151" value="Allocation Rules" style="text;html=1;align=center;verticalAlign=middle;whiteSpace=wrap;rounded=0;fontStyle=2;fontSize=11;fontColor=#FFFFFF;fontFamily=CMU Sans Serif;strokeWidth=0.4;" parent="1" vertex="1">
          <mxGeometry x="293.84000000000015" y="888.6800000000001" width="140" height="25" as="geometry" />
        </mxCell>
        <mxCell id="152" style="edgeStyle=orthogonalEdgeStyle;rounded=0;orthogonalLoop=1;jettySize=auto;html=1;exitX=1;exitY=0.5;exitDx=0;exitDy=0;endArrow=classic;endFill=1;entryX=0.5;entryY=0;entryDx=0;entryDy=0;fontFamily=CMU Sans Serif;strokeWidth=0.4;fontSize=11;" parent="1" source="136" target="146" edge="1">
          <mxGeometry relative="1" as="geometry">
            <mxPoint x="480.03999999999996" y="812" as="sourcePoint" />
            <mxPoint x="370.03999999999996" y="862" as="targetPoint" />
            <Array as="points">
              <mxPoint x="492" y="779" />
              <mxPoint x="492" y="843" />
              <mxPoint x="364" y="843" />
            </Array>
          </mxGeometry>
        </mxCell>
        <mxCell id="153" value="visualize" style="text;html=1;align=center;verticalAlign=middle;whiteSpace=wrap;rounded=0;fontStyle=1;fontSize=11;fontColor=#000000;fontFamily=CMU Sans Serif;strokeWidth=0.4;" parent="1" vertex="1">
          <mxGeometry x="522.0000000000005" y="898" width="38.58" height="25" as="geometry" />
        </mxCell>
        <mxCell id="154" value="" style="shape=step;perimeter=stepPerimeter;fixedSize=1;points=[];whiteSpace=wrap;html=1;rotation=0;size=34;strokeColor=none;fillColor=#4DBD38;fontFamily=CMU Sans Serif;strokeWidth=0.4;fontSize=11;" parent="1" vertex="1">
          <mxGeometry x="487.5" y="730" width="44" height="210" as="geometry" />
        </mxCell>
        <mxCell id="155" value="" style="rounded=0;whiteSpace=wrap;html=1;strokeColor=#00549F;fontFamily=CMU Sans Serif;strokeWidth=0.4;fontSize=11;" parent="1" vertex="1">
          <mxGeometry x="240" y="680" width="430" height="30" as="geometry" />
        </mxCell>
        <mxCell id="156" value="User" style="text;html=1;align=center;verticalAlign=middle;whiteSpace=wrap;rounded=0;fontColor=#00549F;fontSize=11;fontStyle=1;fontFamily=CMU Sans Serif;strokeWidth=0.4;" parent="1" vertex="1">
          <mxGeometry x="429.58000000000015" y="680" width="60" height="30" as="geometry" />
        </mxCell>
        <mxCell id="157" value="" style="shape=actor;whiteSpace=wrap;html=1;fillColor=#00549F;strokeColor=none;fontFamily=CMU Sans Serif;strokeWidth=0.4;fontSize=11;" parent="1" vertex="1">
          <mxGeometry x="640" y="686" width="20" height="24" as="geometry" />
        </mxCell>
        <mxCell id="158" value="domain &amp;amp; sustainability&lt;div style=&quot;font-size: 9px;&quot;&gt;knowledge&lt;/div&gt;" style="text;html=1;align=center;verticalAlign=middle;whiteSpace=wrap;rounded=0;fontColor=#00549F;fontSize=9;fontStyle=1;fontFamily=CMU Sans Serif;strokeWidth=0.4;" parent="1" vertex="1">
          <mxGeometry x="293.84000000000015" y="680" width="140" height="30" as="geometry" />
        </mxCell>
        <mxCell id="159" value="total event emissions" style="rounded=0;whiteSpace=wrap;html=1;fillColor=#4DBD38;fontFamily=CMU Sans Serif;strokeWidth=0.4;fontSize=11;fillOpacity=25;strokeColor=#327A24;fontColor=#327A24;" parent="1" vertex="1">
          <mxGeometry x="263.53" y="363.12" width="174.09" height="20" as="geometry" />
        </mxCell>
        <mxCell id="160" value="object emissions" style="rounded=0;whiteSpace=wrap;html=1;fillColor=#4DBD38;fontFamily=CMU Sans Serif;strokeWidth=0.4;fontSize=11;fillOpacity=25;strokeColor=#327A24;fontColor=#327A24;" parent="1" vertex="1">
          <mxGeometry x="263.53" y="390.12" width="174.09" height="20" as="geometry" />
        </mxCell>
        <mxCell id="161" value="process-related emissions" style="text;html=1;align=center;verticalAlign=middle;whiteSpace=wrap;rounded=0;strokeColor=#327A24;fontFamily=CMU Sans Serif;strokeWidth=0.4;fontSize=11;fillColor=#4DBD38;fillOpacity=25;fontColor=#327A24;" parent="1" vertex="1">
          <mxGeometry x="367.74" y="254.98000000000002" width="62.7" height="41" as="geometry" />
        </mxCell>
        <mxCell id="162" value="" style="shape=flexArrow;endArrow=classic;html=1;rounded=0;width=4.146341463414634;endSize=2.5170731707317078;endWidth=9.224489795918368;fontFamily=CMU Sans Serif;strokeWidth=0.4;fontSize=11;fillColor=default;" parent="1" edge="1">
          <mxGeometry width="50" height="50" relative="1" as="geometry">
            <mxPoint x="328.74" y="275.12" as="sourcePoint" />
            <mxPoint x="355.74" y="275.18999999999994" as="targetPoint" />
          </mxGeometry>
        </mxCell>
        <mxCell id="166" value="RG4.1" style="text;html=1;align=right;verticalAlign=bottom;whiteSpace=wrap;rounded=1;fontColor=#9C9E9F;fontSize=9;fontFamily=CMU Sans Serif;strokeWidth=0.4;fillColor=default;fillOpacity=70;spacing=0;spacingRight=3;spacingBottom=-1;" parent="1" vertex="1">
          <mxGeometry x="424" y="406.12" width="35" height="12" as="geometry" />
        </mxCell>
        <mxCell id="167" value="" style="html=1;verticalLabelPosition=middle;align=left;labelBackgroundColor=none;verticalAlign=middle;strokeWidth=0.4;strokeColor=#9C9E9F;shadow=0;dashed=0;shape=mxgraph.ios7.icons.lightbulb;fontFamily=CMU Sans Serif;fontSize=11;fillColor=#FFF59B;labelPosition=right;spacingLeft=0;spacing=2;fontColor=#9C9E9F;" parent="1" vertex="1">
          <mxGeometry x="517.5" y="249.12" width="15" height="20" as="geometry" />
        </mxCell>
        <mxCell id="168" value="RG5" style="text;html=1;align=center;verticalAlign=middle;whiteSpace=wrap;rounded=0;fontColor=#9C9E9F;fontSize=9;fontFamily=CMU Sans Serif;strokeWidth=0.4;" parent="1" vertex="1">
          <mxGeometry x="521.26" y="256.86" width="40" height="20" as="geometry" />
        </mxCell>
        <mxCell id="169" value="" style="html=1;verticalLabelPosition=middle;align=left;labelBackgroundColor=none;verticalAlign=middle;strokeWidth=0.4;strokeColor=#9C9E9F;shadow=0;dashed=0;shape=mxgraph.ios7.icons.lightbulb;fontFamily=CMU Sans Serif;fontSize=11;fillColor=#FFF59B;labelPosition=right;spacingLeft=0;spacing=2;fontColor=#9C9E9F;" parent="1" vertex="1">
          <mxGeometry x="202.99999999999974" y="403.12" width="15" height="20" as="geometry" />
        </mxCell>
        <mxCell id="170" value="RG6" style="text;html=1;align=center;verticalAlign=middle;whiteSpace=wrap;rounded=0;fontColor=#9C9E9F;fontSize=9;fontFamily=CMU Sans Serif;strokeWidth=0.4;" parent="1" vertex="1">
          <mxGeometry x="206.99999999999997" y="411.12" width="40" height="20" as="geometry" />
        </mxCell>
        <mxCell id="6HFF_rAxcvzF4UJ83M6X-171" value="" style="edgeStyle=none;html=1;labelBackgroundColor=none;fontFamily=CMU Sans Serif;fontSize=11;fontColor=#000000;strokeColor=#00549F;entryX=0.5;entryY=0;entryDx=0;entryDy=0;strokeWidth=0.4;" parent="1" target="101" edge="1">
          <mxGeometry y="10" relative="1" as="geometry">
            <mxPoint as="offset" />
            <mxPoint x="364" y="710" as="sourcePoint" />
            <mxPoint x="380" y="730" as="targetPoint" />
          </mxGeometry>
        </mxCell>
        <mxCell id="6HFF_rAxcvzF4UJ83M6X-173" style="edgeStyle=orthogonalEdgeStyle;rounded=0;orthogonalLoop=1;jettySize=auto;html=1;exitX=1;exitY=0.5;exitDx=0;exitDy=0;fontFamily=CMU Sans Serif;strokeWidth=0.4;fontSize=11;" parent="1" source="6HFF_rAxcvzF4UJ83M6X-174" edge="1">
          <mxGeometry relative="1" as="geometry">
            <mxPoint x="240.00000000000003" y="249.12000000000006" as="targetPoint" />
            <Array as="points">
              <mxPoint x="159" y="249.12000000000006" />
            </Array>
          </mxGeometry>
        </mxCell>
        <mxCell id="6HFF_rAxcvzF4UJ83M6X-174" value="OCEL 2.0" style="shape=datastore;whiteSpace=wrap;html=1;fontFamily=CMU Sans Serif;fontSize=11;strokeWidth=0.4;" parent="1" vertex="1">
          <mxGeometry x="79" y="214.12" width="80" height="70" as="geometry" />
        </mxCell>
        <mxCell id="6HFF_rAxcvzF4UJ83M6X-175" value="sOCEL" style="shape=datastore;whiteSpace=wrap;html=1;fontFamily=CMU Sans Serif;fontSize=11;rounded=1;strokeColor=#327A24;align=center;verticalAlign=middle;fontColor=default;fillColor=#4DBD38;gradientColor=none;strokeOpacity=100;fillOpacity=25;strokeWidth=0.4;" parent="1" vertex="1">
          <mxGeometry x="79" y="354.1200000000001" width="80" height="70" as="geometry" />
        </mxCell>
        <mxCell id="6HFF_rAxcvzF4UJ83M6X-176" value="import" style="text;html=1;align=center;verticalAlign=middle;whiteSpace=wrap;rounded=0;fontStyle=1;fontFamily=CMU Sans Serif;strokeWidth=0.4;fontSize=11;" parent="1" vertex="1">
          <mxGeometry x="160" y="229.12" width="80" height="20" as="geometry" />
        </mxCell>
        <mxCell id="6HFF_rAxcvzF4UJ83M6X-177" value="" style="endArrow=classic;html=1;rounded=0;entryX=1;entryY=0.5;entryDx=0;entryDy=0;fontFamily=CMU Sans Serif;strokeWidth=0.4;fontSize=11;" parent="1" target="6HFF_rAxcvzF4UJ83M6X-175" edge="1">
          <mxGeometry width="50" height="50" relative="1" as="geometry">
            <mxPoint x="240.00000000000003" y="389.1200000000001" as="sourcePoint" />
            <mxPoint x="669" y="224.12000000000006" as="targetPoint" />
          </mxGeometry>
        </mxCell>
        <mxCell id="6HFF_rAxcvzF4UJ83M6X-178" value="export" style="text;html=1;align=center;verticalAlign=middle;whiteSpace=wrap;rounded=0;fontStyle=1;fontFamily=CMU Sans Serif;strokeWidth=0.4;fontSize=11;" parent="1" vertex="1">
          <mxGeometry x="160" y="368.62" width="80" height="20.12" as="geometry" />
        </mxCell>
        <mxCell id="6HFF_rAxcvzF4UJ83M6X-179" value="OCEAn" style="rounded=0;whiteSpace=wrap;html=1;fillColor=none;strokeColor=none;fontFamily=CMU Sans Serif;fontColor=#4DBD38;fontSize=11;fontStyle=1" parent="1" vertex="1">
          <mxGeometry x="589.5" y="425" width="50" height="10" as="geometry" />
        </mxCell>
        <mxCell id="6HFF_rAxcvzF4UJ83M6X-182" value="" style="shape=image;verticalLabelPosition=bottom;labelBackgroundColor=default;verticalAlign=top;aspect=fixed;imageAspect=0;image=data:image/svg+xml,PHN2ZyB4bWxucz0iaHR0cDovL3d3dy53My5vcmcvMjAwMC9zdmciIHdpZHRoPSIzMDAiIGhlaWdodD0iMzAwIiB2aWV3Qm94PSIwIDAgNzkuMzc0OTg5IDc5LjM3NDk4NyIgdmVyc2lvbj0iMS4xIiBpZD0ic3ZnOCI+CiAgPGRlZnMgaWQ9ImRlZnMyIj4KICAgIDxtYXJrZXIgc3R5bGU9Im92ZXJmbG93OnZpc2libGUiIGlkPSJBcnJvdzFTc3RhcnQiIHJlZlg9IjAiIHJlZlk9IjAiIG9yaWVudD0iYXV0byI+CiAgICAgIDxwYXRoIHRyYW5zZm9ybT0ibWF0cml4KDAuMiwwLDAsMC4yLDEuMiwwKSIgc3R5bGU9ImZpbGw6IzE3NmZjMTtmaWxsLW9wYWNpdHk6MTtmaWxsLXJ1bGU6ZXZlbm9kZDtzdHJva2U6IzE3NmZjMTtzdHJva2Utd2lkdGg6MS4wMDAwMDAwM3B0O3N0cm9rZS1vcGFjaXR5OjEiIGQ9Ik0gMCwwIDUsLTUgLTEyLjUsMCA1LDUgWiIgaWQ9InBhdGg0NTkxIi8+CiAgICA8L21hcmtlcj4KICAgIDxtYXJrZXIgc3R5bGU9Im92ZXJmbG93OnZpc2libGUiIGlkPSJUb3JzbyIgcmVmWD0iMCIgcmVmWT0iMCIgb3JpZW50PSJhdXRvIj4KICAgICAgPGcgc3R5bGU9ImZpbGw6IzE3NmZjMTtmaWxsLW9wYWNpdHk6MTtzdHJva2U6IzE3NmZjMTtzdHJva2Utb3BhY2l0eToxIiB0cmFuc2Zvcm09InNjYWxlKDAuNykiIGlkPSJnNDgwNSI+CiAgICAgICAgPHBhdGggc3R5bGU9ImZpbGw6IzE3NmZjMTtmaWxsLW9wYWNpdHk6MTtmaWxsLXJ1bGU6ZXZlbm9kZDtzdHJva2U6IzE3NmZjMTtzdHJva2Utd2lkdGg6MS4yNTtzdHJva2Utb3BhY2l0eToxIiBkPSJtIC00Ljc3OTIyODEsLTMuMjM5NTQyIGMgMi4zNTAzNzQsMC4zNjU5MzkzIDUuMzAwMjY3MzIsMS45Mzc1NDc3IDUuMDM3MTU1MzIsMy42Mjc0ODU0NiBDIC0wLjAwNTE4Nzc5LDIuMDc3ODgxOSAtMi4yMTI2NzQxLDIuNjE3NjUzOSAtNC41NjMwNDcxLDIuMjUxNzE2OSAtNi45MTM0MjIxLDEuODg1Nzc2OSAtOC41MjEwMzUsMC43NTIwMTQxNCAtOC4yNTc5MjIsLTAuOTM3OTIzMzYgLTcuOTk0ODA5LC0yLjYyNzg2MTUgLTcuMTI5NjA0MSwtMy42MDU0ODEzIC00Ljc3OTIyODEsLTMuMjM5NTQyIFoiIGlkPSJwYXRoNDc5MSIvPgogICAgICAgIDxwYXRoIHN0eWxlPSJmaWxsOiMxNzZmYzE7ZmlsbC1vcGFjaXR5OjE7ZmlsbC1ydWxlOmV2ZW5vZGQ7c3Ryb2tlOiMxNzZmYzE7c3Ryb2tlLXdpZHRoOjEuMDAwMDAwMDNwdDtzdHJva2Utb3BhY2l0eToxIiBkPSJNIDQuNDU5ODc4OSwwLjA4ODY2NTc0IEMgLTIuNTU2NDU3MSwtNC4zNzgzMzIgNS4yMjQ4NzY5LC0zLjkwNjE4MDYgLTAuODQ4Mjk1NzgsLTguNzE5NzMzMSIgaWQ9InBhdGg0NzkzIi8+CiAgICAgICAgPHBhdGggc3R5bGU9ImZpbGw6IzE3NmZjMTtmaWxsLW9wYWNpdHk6MTtmaWxsLXJ1bGU6ZXZlbm9kZDtzdHJva2U6IzE3NmZjMTtzdHJva2Utd2lkdGg6MS4wMDAwMDAwM3B0O3N0cm9rZS1vcGFjaXR5OjEiIGQ9Ik0gNC45Mjk4NzE5LDAuMDU3NTIwNzQgQyAtMS4zODcyNzMxLDEuNzQ5NDY4OSAxLjgwMjc1NzksNS40NzgyMDc5IC00Ljk0NDg3MzEsNy41NDYyNzI1IiBpZD0icGF0aDQ3OTUiLz4KICAgICAgICA8cmVjdCBzdHlsZT0iZmlsbDojMTc2ZmMxO2ZpbGwtb3BhY2l0eToxO2ZpbGwtcnVsZTpldmVub2RkO3N0cm9rZTojMTc2ZmMxO3N0cm9rZS13aWR0aDoxLjAwMDAwMDAzcHQ7c3Ryb2tlLW9wYWNpdHk6MSIgd2lkdGg9IjIuNjM2NjU4MiIgaGVpZ2h0PSIyLjc2MDgxNDciIHg9Ii0xMC4zOTE3MDYiIHk9Ii0xLjc0MDg1NzUiIHRyYW5zZm9ybT0ibWF0cml4KDAuNTI3NTM2LC0wLjg0OTUzMywwLjg4NzY2OCwwLjQ2MDQ4NCwwLDApIiBpZD0icmVjdDQ3OTciLz4KICAgICAgICA8cmVjdCBzdHlsZT0iZmlsbDojMTc2ZmMxO2ZpbGwtb3BhY2l0eToxO2ZpbGwtcnVsZTpldmVub2RkO3N0cm9rZTojMTc2ZmMxO3N0cm9rZS13aWR0aDoxLjAwMDAwMDAzcHQ7c3Ryb2tlLW9wYWNpdHk6MSIgd2lkdGg9IjIuNzMyNzM1NiIgaGVpZ2h0PSIyLjg2MTQxNjEiIHg9IjQuOTU4NzI2OSIgeT0iLTcuOTYyOTMwNyIgdHJhbnNmb3JtPSJtYXRyaXgoMC42NzEyMDUsLTAuNzQxMjcyLDAuNzkwODAyLDAuNjEyMDcyLDAsMCkiIGlkPSJyZWN0NDc5OSIvPgogICAgICAgIDxwYXRoIHN0eWxlPSJmaWxsOiMxNzZmYzE7ZmlsbC1vcGFjaXR5OjE7ZmlsbC1ydWxlOmV2ZW5vZGQ7c3Ryb2tlOiMxNzZmYzE7c3Ryb2tlLXdpZHRoOjEuMDAwMDAwMDNwdDtzdHJva2Utb3BhY2l0eToxIiBkPSJtIDE2Ljc3OTk1MSwtMjguNjg1MDQ1IGEgMC42MDczMTcyNywwLjYwNzMxNzI3IDAgMSAwIC0xLjIxNDYzNCwwIDAuNjA3MzE3MjcsMC42MDczMTcyNyAwIDEgMCAxLjIxNDYzNCwwIHoiIHRyYW5zZm9ybT0ibWF0cml4KDAsLTEuMTA5NTE3LDEuMTA5NTE3LDAsMjUuOTY2NDgsMTkuNzE2MTkpIiBpZD0icGF0aDQ4MDEiLz4KICAgICAgICA8cGF0aCBzdHlsZT0iZmlsbDojMTc2ZmMxO2ZpbGwtb3BhY2l0eToxO2ZpbGwtcnVsZTpldmVub2RkO3N0cm9rZTojMTc2ZmMxO3N0cm9rZS13aWR0aDoxLjAwMDAwMDAzcHQ7c3Ryb2tlLW9wYWNpdHk6MSIgZD0ibSAxNi43Nzk5NTEsLTI4LjY4NTA0NSBhIDAuNjA3MzE3MjcsMC42MDczMTcyNyAwIDEgMCAtMS4yMTQ2MzQsMCAwLjYwNzMxNzI3LDAuNjA3MzE3MjcgMCAxIDAgMS4yMTQ2MzQsMCB6IiB0cmFuc2Zvcm09Im1hdHJpeCgwLC0xLjEwOTUxNywxLjEwOTUxNywwLDI2LjgyNDUsMTYuOTkxMjYpIiBpZD0icGF0aDQ4MDMiLz4KICAgICAgPC9nPgogICAgPC9tYXJrZXI+CiAgICA8bWFya2VyIHN0eWxlPSJvdmVyZmxvdzp2aXNpYmxlIiBpZD0iVHJpYW5nbGVJbk0iIHJlZlg9IjAiIHJlZlk9IjAiIG9yaWVudD0iYXV0byI+CiAgICAgIDxwYXRoIHRyYW5zZm9ybT0ic2NhbGUoLTAuNCkiIHN0eWxlPSJmaWxsOiMxNzZmYzE7ZmlsbC1vcGFjaXR5OjE7ZmlsbC1ydWxlOmV2ZW5vZGQ7c3Ryb2tlOiMxNzZmYzE7c3Ryb2tlLXdpZHRoOjEuMDAwMDAwMDNwdDtzdHJva2Utb3BhY2l0eToxIiBkPSJNIDUuNzcsMCAtMi44OCw1IFYgLTUgWiIgaWQ9InBhdGg0NzE1Ii8+CiAgICA8L21hcmtlcj4KICAgIDxtYXJrZXIgc3R5bGU9Im92ZXJmbG93OnZpc2libGUiIGlkPSJBcnJvdzJNc3RhcnQiIHJlZlg9IjAiIHJlZlk9IjAiIG9yaWVudD0iYXV0byI+CiAgICAgIDxwYXRoIHRyYW5zZm9ybT0ic2NhbGUoMC42KSIgZD0iTSA4LjcxODU4NzgsNC4wMzM3MzUyIC0yLjIwNzI4OTUsMC4wMTYwMTMyNiA4LjcxODU4ODQsLTQuMDAxNzA3OCBjIC0xLjc0NTQ5ODQsMi4zNzIwNjA5IC0xLjczNTQ0MDgsNS42MTc0NTE5IC02ZS03LDguMDM1NDQzIHoiIHN0eWxlPSJmaWxsOiMxNzZmYzE7ZmlsbC1vcGFjaXR5OjE7ZmlsbC1ydWxlOmV2ZW5vZGQ7c3Ryb2tlOiMxNzZmYzE7c3Ryb2tlLXdpZHRoOjAuNjI1O3N0cm9rZS1saW5lam9pbjpyb3VuZDtzdHJva2Utb3BhY2l0eToxIiBpZD0icGF0aDQ2MDMiLz4KICAgIDwvbWFya2VyPgogICAgPG1hcmtlciBzdHlsZT0ib3ZlcmZsb3c6dmlzaWJsZSIgaWQ9IkFycm93MUxzdGFydCIgcmVmWD0iMCIgcmVmWT0iMCIgb3JpZW50PSJhdXRvIj4KICAgICAgPHBhdGggdHJhbnNmb3JtPSJtYXRyaXgoMC44LDAsMCwwLjgsMTAsMCkiIHN0eWxlPSJmaWxsOiMxNzZmYzE7ZmlsbC1vcGFjaXR5OjE7ZmlsbC1ydWxlOmV2ZW5vZGQ7c3Ryb2tlOiMxNzZmYzE7c3Ryb2tlLXdpZHRoOjEuMDAwMDAwMDNwdDtzdHJva2Utb3BhY2l0eToxIiBkPSJNIDAsMCA1LC01IC0xMi41LDAgNSw1IFoiIGlkPSJwYXRoNDU3OSIvPgogICAgPC9tYXJrZXI+CiAgICA8bWFya2VyIHN0eWxlPSJvdmVyZmxvdzp2aXNpYmxlIiBpZD0ibWFya2VyNjAwOSIgcmVmWD0iMCIgcmVmWT0iMCIgb3JpZW50PSJhdXRvIj4KICAgICAgPHBhdGggdHJhbnNmb3JtPSJtYXRyaXgoMC4yLDAsMCwwLjIsMS40OCwwLjIpIiBzdHlsZT0iZmlsbDojZmZmZmZmO2ZpbGwtb3BhY2l0eToxO2ZpbGwtcnVsZTpldmVub2RkO3N0cm9rZTojZmZmZmZmO3N0cm9rZS13aWR0aDoxLjAwMDAwMDAzcHQ7c3Ryb2tlLW9wYWNpdHk6MSIgZD0ibSAtMi41LC0xIGMgMCwyLjc2IC0yLjI0LDUgLTUsNSAtMi43NiwwIC01LC0yLjI0IC01LC01IDAsLTIuNzYgMi4yNCwtNSA1LC01IDIuNzYsMCA1LDIuMjQgNSw1IHoiIGlkPSJwYXRoNjAwNyIvPgogICAgPC9tYXJrZXI+CiAgICA8bWFya2VyIHN0eWxlPSJvdmVyZmxvdzp2aXNpYmxlIiBpZD0iRGlhbW9uZFNlbmQiIHJlZlg9IjAiIHJlZlk9IjAiIG9yaWVudD0iYXV0byI+CiAgICAgIDxwYXRoIHRyYW5zZm9ybT0ibWF0cml4KDAuMiwwLDAsMC4yLC0xLjIsMCkiIHN0eWxlPSJmaWxsOiNmZmZmZmY7ZmlsbC1vcGFjaXR5OjE7ZmlsbC1ydWxlOmV2ZW5vZGQ7c3Ryb2tlOiNmZmZmZmY7c3Ryb2tlLXdpZHRoOjEuMDAwMDAwMDNwdDtzdHJva2Utb3BhY2l0eToxIiBkPSJNIDAsLTcuMDcxMDc2OCAtNy4wNzEwODk0LDAgMCw3LjA3MTA1ODkgNy4wNzEwNDYyLDAgWiIgaWQ9InBhdGg0NjgyIi8+CiAgICA8L21hcmtlcj4KICAgIDxtYXJrZXIgc3R5bGU9Im92ZXJmbG93OnZpc2libGUiIGlkPSJFbXB0eURpYW1vbmRTc3RhcnQiIHJlZlg9IjAiIHJlZlk9IjAiIG9yaWVudD0iYXV0byI+CiAgICAgIDxwYXRoIHRyYW5zZm9ybT0ibWF0cml4KDAuMiwwLDAsMC4yLDEuMiwwKSIgc3R5bGU9ImZpbGw6IzE3NmZjMTtmaWxsLW9wYWNpdHk6MTtmaWxsLXJ1bGU6ZXZlbm9kZDtzdHJva2U6IzE3NmZjMTtzdHJva2Utd2lkdGg6MS4wMDAwMDAwM3B0O3N0cm9rZS1vcGFjaXR5OjEiIGQ9Ik0gMCwtNy4wNzEwNzY4IC03LjA3MTA4OTQsMCAwLDcuMDcxMDU4OSA3LjA3MTA0NjIsMCBaIiBpZD0icGF0aDQ3MDAiLz4KICAgIDwvbWFya2VyPgogICAgPG1hcmtlciBvcmllbnQ9ImF1dG8iIHJlZlk9IjAiIHJlZlg9IjAiIGlkPSJtYXJrZXI1MzU2IiBzdHlsZT0ib3ZlcmZsb3c6dmlzaWJsZSI+CiAgICAgIDxwYXRoIGlkPSJwYXRoNTM1NCIgZD0ibSAtMi41LC0xIGMgMCwyLjc2IC0yLjI0LDUgLTUsNSAtMi43NiwwIC01LC0yLjI0IC01LC01IDAsLTIuNzYgMi4yNCwtNSA1LC01IDIuNzYsMCA1LDIuMjQgNSw1IHoiIHN0eWxlPSJmaWxsOiMzZTlhMmU7ZmlsbC1vcGFjaXR5OjE7ZmlsbC1ydWxlOmV2ZW5vZGQ7c3Ryb2tlOiNmZmZmZmY7c3Ryb2tlLXdpZHRoOjEuMDAwMDAwMDNwdDtzdHJva2Utb3BhY2l0eToxIiB0cmFuc2Zvcm09Im1hdHJpeCgwLjIsMCwwLDAuMiwxLjQ4LDAuMikiLz4KICAgIDwvbWFya2VyPgogICAgPG1hcmtlciBzdHlsZT0ib3ZlcmZsb3c6dmlzaWJsZSIgaWQ9IlNxdWFyZU0iIHJlZlg9IjAiIHJlZlk9IjAiIG9yaWVudD0iYXV0byI+CiAgICAgIDxwYXRoIHRyYW5zZm9ybT0ic2NhbGUoMC40KSIgc3R5bGU9ImZpbGw6IzNlOWEyZTtmaWxsLW9wYWNpdHk6MTtmaWxsLXJ1bGU6ZXZlbm9kZDtzdHJva2U6I2ZmZmZmZjtzdHJva2Utd2lkdGg6MS4wMDAwMDAwM3B0O3N0cm9rZS1vcGFjaXR5OjEiIGQ9Ik0gLTUsLTUgViA1IEggNSBWIC01IFoiIGlkPSJwYXRoNDY1MiIvPgogICAgPC9tYXJrZXI+CiAgICA8bWFya2VyIHN0eWxlPSJvdmVyZmxvdzp2aXNpYmxlIiBpZD0iU2Npc3NvcnMiIHJlZlg9IjAiIHJlZlk9IjAiIG9yaWVudD0iYXV0byI+CiAgICAgIDxwYXRoIHN0eWxlPSJmaWxsOiMxNzZmYzE7ZmlsbC1vcGFjaXR5OjE7c3Ryb2tlOiMxNzZmYzE7c3Ryb2tlLW9wYWNpdHk6MSIgZD0iTSA5LjA4OTg4NTcsLTMuNjA2MTAxOCBDIDguMTE5ODg0OSwtNC43NzY5OTc2IDYuMzY5NzYwNywtNC43MzU4Mjk0IDUuMDYyMzU1OCwtNC4yMzI3NzM0IGwgLTguMjEyNDA0NiwzLjA3NzkwMjkgYyAtMi4zODgyOTMzLC0xLjMwNjcxMzUgLTQuNzQ4Mjg3MywtMC45MzI1MzcyIC00Ljc0ODI4NzMsLTEuNTY4Nzg3MyAwLC0wLjQ5NzMxNjQgMC40NTY2NjYyLC0wLjM4ODMyMjIgMC4zODgzMDY4LC0xLjY4MzE5NDEgLTAuMDY1NjM1LC0xLjI0MzI3NjcgLTEuMzYzNTc3MSwtMi4xNjMwNzk2IC0yLjU5MDM5ODcsLTIuMDgxNjQzNSAtMS4yMjcyNzEsLTAuMDA3MzUgLTIuNDk5NDM5LDAuOTMzMTYxMyAtMi41MTAzNDEsMi4yMzAwNjExIC0wLjA5MTQzLDEuMzA2Mzg2NCAxLjAwNzIwOSwyLjUxOTY4OTYgMi4zMDY3NjQsMi42MDUyMzE2IDEuNTIyMzQwNiwwLjIyNjY2MTYgNC4yMTgyNTgsLTAuNjk1NTU2NiA1LjQ4Mjk0NSwxLjU3MDg2MDA2IC0wLjk0MjI4NDcsMS43MzgyNTc3NCAtMi42MTQwMjQ0LDEuNzQzMDc2NzQgLTQuMTI1NTEwNywxLjY1NjA3MDM0IC0xLjI1NDg3NDMsLTAuMDcyMjM1IC0yLjc2MjA5MzMsMC4yODczOTc5IC0zLjM2MDY0ODMsMS41MjA4NjA1IC0wLjU3ODM2NywxLjE4MjA4NjIgLTAuMDExMiwyLjg2NDYwMjIgMS4zMTY3NDksMy4yMjY0MTIgMS4zNDAxOTEyLDAuNDkxODI3NyAzLjE4MDY2ODksLTAuMTI5NzExIDMuNDk5MzcyMiwtMS42NzA3MjQyIDAuMjQ1NjU4NSwtMS4xODc4MjMgLTAuNTk1MzY1OSwtMS43NDU5NTc0IC0wLjI3MjUwNzQsLTIuMTc3MTUzNyAwLjI0MzYxMzUsLTAuMzI1MzYgMS43OTA3ODA2LC0wLjEzNjg0NTIgNC41NDcxMDUzLC0xLjM3NDgyNDQgTCA1LjY3NjM0NjgsNC4yMzMwNjg4IEMgNi44MDAwMTY0LDQuNTQ2NzY3MiA4LjE3MzA2ODUsNC41MzYyNjQ2IDkuMTY4NDQzMywzLjQzMTM2MTQgbCAtOS4yMjAwODQyMywtMy40ODUwODM2MiB6IG0gLTE4LjMwNzgwMTYsLTEuOTAwNTA0IGMgMS4yOTQ1NTksMC43MjI3OTk4IDEuMTg4ODM5MiwyLjY4MzU3MDIgLTAuMTU2NDI3MiwzLjA2MzI4ODkgLTEuMjE2NTE3OSwwLjQyMzY2MSAtMi43NzEwMjY5LC0wLjc1ODk2OTQgLTIuMzgzMTc3OSwtMi4wNzc0NjQ4IDAuMjI3MTQ4LC0xLjA4MTg1MTkgMS42NTMzODcsLTEuNDgwNjMyIDIuNTM5NjA1MSwtMC45ODU4MjQxIHogbSAwLjA1NjI2NCw4LjAxNzM2NDkgYyAxLjM1MDgzMDEsMC40OTg4NjQ4IDEuMTIxNDQyOSwyLjc4NDQzNTYgLTAuMjUyMjIwNywzLjA5MTYwOSAtMC45MTEwNTk0LDAuMzE2MzM5MSAtMi4yMTM1NDk0LC0wLjEzODc5NzYgLTIuMzA1Njk2NCwtMS4yMTIxMzk0IC0wLjE3NzYwOSwtMS4zMDUwNTUgMS4zNTYwODUsLTIuNDg0MTQ4MiAyLjU1NzkxNzEsLTEuODc5NDY5NiB6IiBpZD0ic2NoZXJlIi8+CiAgICA8L21hcmtlcj4KICAgIDxtYXJrZXIgc3R5bGU9Im92ZXJmbG93OnZpc2libGUiIGlkPSJEaWFtb25kUyIgcmVmWD0iMCIgcmVmWT0iMCIgb3JpZW50PSJhdXRvIj4KICAgICAgPHBhdGggdHJhbnNmb3JtPSJzY2FsZSgwLjIpIiBzdHlsZT0iZmlsbDojM2U5YTJlO2ZpbGwtb3BhY2l0eToxO2ZpbGwtcnVsZTpldmVub2RkO3N0cm9rZTojZmZmZmZmO3N0cm9rZS13aWR0aDoxLjAwMDAwMDAzcHQ7c3Ryb2tlLW9wYWNpdHk6MSIgZD0iTSAwLC03LjA3MTA3NjggLTcuMDcxMDg5NCwwIDAsNy4wNzEwNTg5IDcuMDcxMDQ2MiwwIFoiIGlkPSJwYXRoNDY2NCIvPgogICAgPC9tYXJrZXI+CiAgICA8bWFya2VyIHN0eWxlPSJvdmVyZmxvdzp2aXNpYmxlIiBpZD0iQXJyb3cxU2VuZCIgcmVmWD0iMCIgcmVmWT0iMCIgb3JpZW50PSJhdXRvIj4KICAgICAgPHBhdGggdHJhbnNmb3JtPSJtYXRyaXgoLTAuMiwwLDAsLTAuMiwtMS4yLDApIiBzdHlsZT0iZmlsbDojM2U5YTJlO2ZpbGwtb3BhY2l0eToxO2ZpbGwtcnVsZTpldmVub2RkO3N0cm9rZTojZmZmZmZmO3N0cm9rZS13aWR0aDoxLjAwMDAwMDAzcHQ7c3Ryb2tlLW9wYWNpdHk6MSIgZD0iTSAwLDAgNSwtNSAtMTIuNSwwIDUsNSBaIiBpZD0icGF0aDQ1OTQiLz4KICAgIDwvbWFya2VyPgogICAgPG1hcmtlciBzdHlsZT0ib3ZlcmZsb3c6dmlzaWJsZSIgaWQ9IkRvdE0iIHJlZlg9IjAiIHJlZlk9IjAiIG9yaWVudD0iYXV0byI+CiAgICAgIDxwYXRoIHRyYW5zZm9ybT0ibWF0cml4KDAuNCwwLDAsMC40LDIuOTYsMC40KSIgc3R5bGU9ImZpbGw6I2ZmZmZmZjtmaWxsLW9wYWNpdHk6MTtmaWxsLXJ1bGU6ZXZlbm9kZDtzdHJva2U6I2ZmZmZmZjtzdHJva2Utd2lkdGg6MS4wMDAwMDAwM3B0O3N0cm9rZS1vcGFjaXR5OjEiIGQ9Im0gLTIuNSwtMSBjIDAsMi43NiAtMi4yNCw1IC01LDUgLTIuNzYsMCAtNSwtMi4yNCAtNSwtNSAwLC0yLjc2IDIuMjQsLTUgNSwtNSAyLjc2LDAgNSwyLjI0IDUsNSB6IiBpZD0icGF0aDQ2NDMiLz4KICAgIDwvbWFya2VyPgogICAgCiAgICAKICAgIDxjbGlwUGF0aCBpZD0iY2xpcFBhdGgxNjYtMSIgY2xpcFBhdGhVbml0cz0idXNlclNwYWNlT25Vc2UiPgogICAgICA8cGF0aCBpZD0icGF0aDE2NC0zIiBkPSJNIDAsMCBIIDU5NS4yNzYgViA4NDEuODkgSCAwIFoiLz4KICAgIDwvY2xpcFBhdGg+CiAgPC9kZWZzPgogIAogIDxtZXRhZGF0YSBpZD0ibWV0YWRhdGE1Ij4KICAgIAogICAgICAKICAgICAgICBpbWFnZS9zdmcreG1sCiAgICAgICAgCiAgICAgICAgCiAgICAgIAogICAgCiAgPC9tZXRhZGF0YT4KICA8ZyB0cmFuc2Zvcm09InRyYW5zbGF0ZSgtMTAzLjg0NzA3LC05MC41Mzg1NikiIGlkPSJsYXllcjEiPgogICAgPHBhdGggc3R5bGU9ImNvbG9yOiMwMDAwMDA7Zm9udC1zdHlsZTpub3JtYWw7Zm9udC12YXJpYW50Om5vcm1hbDtmb250LXdlaWdodDpub3JtYWw7Zm9udC1zdHJldGNoOm5vcm1hbDtmb250LXNpemU6bWVkaXVtO2xpbmUtaGVpZ2h0Om5vcm1hbDtmb250LWZhbWlseTpzYW5zLXNlcmlmO2ZvbnQtdmFyaWFudC1saWdhdHVyZXM6bm9ybWFsO2ZvbnQtdmFyaWFudC1wb3NpdGlvbjpub3JtYWw7Zm9udC12YXJpYW50LWNhcHM6bm9ybWFsO2ZvbnQtdmFyaWFudC1udW1lcmljOm5vcm1hbDtmb250LXZhcmlhbnQtYWx0ZXJuYXRlczpub3JtYWw7Zm9udC1mZWF0dXJlLXNldHRpbmdzOm5vcm1hbDt0ZXh0LWluZGVudDowO3RleHQtYWxpZ246c3RhcnQ7dGV4dC1kZWNvcmF0aW9uOm5vbmU7dGV4dC1kZWNvcmF0aW9uLWxpbmU6bm9uZTt0ZXh0LWRlY29yYXRpb24tc3R5bGU6c29saWQ7dGV4dC1kZWNvcmF0aW9uLWNvbG9yOiMwMDAwMDA7bGV0dGVyLXNwYWNpbmc6bm9ybWFsO3dvcmQtc3BhY2luZzpub3JtYWw7dGV4dC10cmFuc2Zvcm06bm9uZTt3cml0aW5nLW1vZGU6bHItdGI7ZGlyZWN0aW9uOmx0cjt0ZXh0LW9yaWVudGF0aW9uOm1peGVkO2RvbWluYW50LWJhc2VsaW5lOmF1dG87YmFzZWxpbmUtc2hpZnQ6YmFzZWxpbmU7dGV4dC1hbmNob3I6c3RhcnQ7d2hpdGUtc3BhY2U6bm9ybWFsO3NoYXBlLXBhZGRpbmc6MDtjbGlwLXJ1bGU6bm9uemVybztkaXNwbGF5OmlubGluZTtvdmVyZmxvdzp2aXNpYmxlO3Zpc2liaWxpdHk6dmlzaWJsZTtvcGFjaXR5OjE7aXNvbGF0aW9uOmF1dG87bWl4LWJsZW5kLW1vZGU6bm9ybWFsO2NvbG9yLWludGVycG9sYXRpb246c1JHQjtjb2xvci1pbnRlcnBvbGF0aW9uLWZpbHRlcnM6bGluZWFyUkdCO3NvbGlkLWNvbG9yOiMwMDAwMDA7c29saWQtb3BhY2l0eToxO3ZlY3Rvci1lZmZlY3Q6bm9uZTtmaWxsOiM0ZGJkMzg7ZmlsbC1vcGFjaXR5OjE7ZmlsbC1ydWxlOm5vbnplcm87c3Ryb2tlOm5vbmU7c3Ryb2tlLXdpZHRoOjY7c3Ryb2tlLWxpbmVjYXA6cm91bmQ7c3Ryb2tlLWxpbmVqb2luOm1pdGVyO3N0cm9rZS1taXRlcmxpbWl0OjQ7c3Ryb2tlLWRhc2hhcnJheTpub25lO3N0cm9rZS1kYXNob2Zmc2V0OjA7c3Ryb2tlLW9wYWNpdHk6MTtjb2xvci1yZW5kZXJpbmc6YXV0bztpbWFnZS1yZW5kZXJpbmc6YXV0bztzaGFwZS1yZW5kZXJpbmc6YXV0bzt0ZXh0LXJlbmRlcmluZzphdXRvO2VuYWJsZS1iYWNrZ3JvdW5kOmFjY3VtdWxhdGUiIGQ9Im0gMTc0LjYyNjczLDEwMS4yNDY5NSBhIDEuNTAwMTUsMS41MDAxNSAwIDAgMCAtMS4zOTY4MSwxLjEyMjkzIGMgLTAuMzc3MDMsMS40NTE1MiAtMS4xOTgwNywyLjUxMzA2IC0yLjU2MjY0LDMuNDg2NjEgLTEuMzY0NTgsMC45NzM1NSAtMy4yNzU1OCwxLjc5MDAyIC01LjU2ODEzLDIuNTA5OTIgLTQuNTg1MTUsMS40Mzk4MiAtMTAuNjQ4MzIsMi41MDE3NiAtMTYuODcxMzMsNC40Mjc2NCAtNi4yMjMwMSwxLjkyNTg4IC0xMi42NDYwNSw0Ljc0MDU2IC0xNy45MzEyLDkuODEyMzIgLTQuODQyNDUsNC42NDY5NCAtOC42NjcwNSwxMS4xODMyIC0xMC41MDQyNywyMC40MDk2MSBhIDMuMDAwMzAwMSwzLjAwMDMwMDEgMCAwIDAgLTAuMzA4NTEsMC4xMzMzMiBjIDAsMCAtNS44MjIyNSwzLjAxMSAtOS45OTYyOSwxMC44NDc5MiBhIDMuMDAwMzAwMSwzLjAwMDMwMDEgMCAxIDAgNS4yOTUyOSwyLjgyMjA1IGMgMy40Mzg5MywtNi40NTY3MiA3LjM3MzE5LC04LjI5NjY1IDcuMzczMTksLTguMjk2NjUgYSAzLjAwMDMwMDEsMy4wMDAzMDAxIDAgMCAwIDAuNDE3MDMsLTAuMjQ4MDUgYyAxMy4wNjA3Nyw1LjY5MDYzIDIzLjI2Mjk0LDYuNDIxNzIgMzEuMTUzMTQsMy45NTY4NiA4LjM2NTQ3LC0yLjYxMzMzIDEzLjkzODA4LC04Ljc4Mjg2IDE3LjQ4MjEzLC0xNS43ODcxNSAzLjU0NDA1LC03LjAwNDI4IDUuMTQyNTMsLTE0Ljg4MTgzIDUuNjg5NTgsLTIxLjMyMjIxIDAuMjczNTMsLTMuMjIwMTkgMC4yODE0LC02LjA3NzY4IDAuMTIwOTIsLTguMzE0MjIgLTAuMDgwMywtMS4xMTgyNyAtMC4yMDAxOSwtMi4wODEyOCAtMC4zNjMyOSwtMi44Nzk0MSAtMC4xNjMxMSwtMC43OTgxMiAtMC4yOTgxMSwtMS4zOTc3MiAtMC43NDIwNywtMi4wMzcwOCBhIDEuNTAwMTUsMS41MDAxNSAwIDAgMCAtMS4yODY3NCwtMC42NDQ0MSB6IG0gLTAuNjMwOTcsNS41MTc0OSBjIDAuMDA4LDAuMTAyMDIgMC4wMjM1LDAuMTUyMTcgMC4wMzEsMC4yNTc4NyAwLjEwNjQ3LDEuNDgzNjcgMC4xMzE5MywzLjMyOTcxIDAuMDM4OCw1LjQwNDMyIC0wLjg3OTY3LDEuMDQzNzYgLTIuMzUwNDgsMi42MDg2NCAtNC4yNTc2MiwzLjk0OTExIC0zLjE3MzU3LDIuMjMwNjEgLTcuMzQ0OTEsMy43ODIzOSAtMTIuMDQwNjEsMS4yOTcwOCAtMi41NjM1NywtMS4zNTY4NCAtNC43NzY2NywtMi4xNTYxNCAtNi42MTc2OCwtMi42MTEyMSA1LjMwMDU2LC0xLjQ5NTM3IDEwLjUwODQxLC0yLjQ2OTcyIDE0Ljg0NzY3LC0zLjgzMjMyIDIuNDQ2OSwtMC43NjgzOCA0LjYzMTQ5LC0xLjY1ODg2IDYuNDEyNTMsLTIuOTI5NTQgMC42MDk0NSwtMC40MzQ4MSAxLjA4NzU5LC0wLjk5NDc4IDEuNTg1OTUsLTEuNTM1MzEgeiBtIC0wLjA4NDcsOC4wNjQxMSBjIC0wLjAwMSwwLjAxMzQgLTAuMDAyLDAuMDI2MyAtMC4wMDMsMC4wMzk4IC0wLjE3MDU3LDIuMDA4MDkgLTAuNDU0MjEsNC4xNjY5MSAtMC44Njk3MSw2LjM4OTI4IC0xLjA1NzAxLDAuOTY2MDcgLTIuODU0MzksMi40MDcyNCAtNS4yMTQ2NywzLjUyMDcxIC0zLjg4NzU5LDEuODM0IC05LjE1MDg2LDIuNzY5MzkgLTE1LjE2MzkzLC0wLjg5MDkgLTMuNjY4MzQsLTIuMjMzIC04LjgwODY5LC0yLjU4OTE4IC0xMy4wNTQ1LC0yLjQ1ODc3IC0xLjIzNzU5LDAuMDM4IC0yLjM4NDYyLDAuMTIyODQgLTMuNDEyNzIsMC4yMjE3IDMuNjE3NzEsLTIuNTIwMyA3LjYzNTA4LC00LjI2MjIgMTEuNzA5MzcsLTUuNjAxNzMgMC4wNTQzLDAuMDA0IDAuMTAwNjEsMC4wMDQgMC4xNTY1OCwwLjAwOSAyLjAwMzkzLDAuMTYwOTUgNS4wMjc4NCwwLjgzNDk3IDkuMDA3NzIsMi45NDE0MyA1LjI1OTgsMi43ODM4OCAxMC4xNzc0MiwxLjAxMzExIDEzLjYwNTM3LC0xLjM5NjMgMS4yNzU3NSwtMC44OTY2OSAyLjM2ODg4LC0xLjg4NTQgMy4yMzk1OSwtMi43NzM5OSB6IG0gLTMyLjcwNjUzLDguMTMwMjUgYyAyLjE0NzMxLDAuMDEyNCA0LjM4OTE0LDAuMTk4NDggNi40NzUwNiwwLjY3NDkgMC4xMzQ0OCw1LjE0NTc2IDEuNjQwNDUsOC40MDQ1NCA0LjAyOTIxLDEwLjEyODU4IDIuNTAwMDIsMS44MDQzMyA1LjczNTk1LDEuOTEzNyA4Ljg1NTI3LDEuMzQ5NzkgMy42MDIzOCwtMC42NTEyNCA3LjE0MjI4LC0yLjIxNTEgOS40OTcwOSwtMy40MjI1MyAtMC40NjI5MywxLjE1NDU1IC0wLjk2ODY5LDIuMjkyNzMgLTEuNTI4NTgsMy4zOTkyNyAtMC40NzE1NywwLjkzMTk4IC0wLjk3Nzk1LDEuODQwOTMgLTEuNTE5ODEsMi43MjI4MyAtMC4yNDU4MywwLjExMzQ2IC0wLjUwNjE2LDAuMjMxNDYgLTAuODA3NywwLjM1OTE1IC0xLjQxMzgyLDAuNTk4NzIgLTMuNDA4MTIsMS4zMTM4IC01LjY5MzcxLDEuNzc5MjIgLTQuNTcxMTcsMC45MzA4MyAtMTAuMjM5MTIsMC44NzI5MyAtMTQuOTY4NiwtMi45NzI0MiAtMC4wMDQsLTAuMDA0IC0wLjAwOSwtMC4wMDQgLTAuMDEzNCwtMC4wMDggbCAwLjAwMiwtMC4wMDIgYyAtMS4zMzE2OSwtMS4wNDE2NiAtMi42ODQyNiwtMy4yNjcgLTMuNjU4MTcsLTUuOTcyNzcgLTAuODg3NzUsLTIuNDY2NCAtMS40Mjg0NywtNS4zMTUyOCAtMS41ODE4MiwtOC4wMzE1NSAwLjMwMjE4LC0wLjAwNSAwLjYwNjg4LC0wLjAwNiAwLjkxMzY0LC0wLjAwNSB6IG0gLTIuNDExNzQsMC4wNiBjIDAuMDkwMiwxLjYzODU2IDAuMzI2OCwzLjI3MjUyIDAuNjkwOTEsNC44OTIyMSAtNC4zNzkxOSwtMC4yNTAyNyAtOC40Njg3OSwwLjc5MDggLTExLjE5MjU5LDEuNzM5OTQgMS4yMzUxOSwtMS44NDc3MiAyLjYwNjAxLC0zLjQ2MjUxIDQuMDgzNDcsLTQuODgwMzIgMC40NjYxMiwtMC40NDczMSAwLjk0NjAyLC0wLjg3MDc4IDEuNDMyNDcsLTEuMjgyMDkgMS4yMjU1NCwtMC4xNTM5OCAzLjAwOTMzLC0wLjM1Mjc4IDQuOTg1NzQsLTAuNDY5NzQgeiBtIDMzLjc1ODE1LDAuNjAyMDMgYyAtMC40NDc4MiwxLjk2OTM0IC0xLjAwODM4LDMuOTYzNjMgLTEuNjkwODYsNS45MjkzNSAtMi4wMjkwMiwxLjEzMzY0IC02LjMyNTgxLDMuMzIxNTggLTEwLjU2MzE4LDQuMDg3NjEgLTIuOTA0MjUsMC41MjUwMyAtNS42OTIxNywwLjM2NTIzIC03LjcxMTE1LC0xLjA5MTkyIC0xLjg3MjM0LC0xLjM1MTMyIC0zLjE5MjA1LC0zLjk3NTc1IC0zLjM4Mjc0LC04LjU2Mjc5IDAuOTc1NSwwLjMxMDg5IDEuODgxNDMsMC43MDExNiAyLjY3Nzg3LDEuMTg1OTcgNi40NDk4MywzLjkyNjE1IDEyLjM4NjIzLDIuOTQ1NjggMTYuNTgxOTMsMC45NjYzNSAxLjYyNTcyLC0wLjc2NjkzIDMuMDA0NDMsLTEuNjgwOTUgNC4wODgxMywtMi41MTQ1NyB6IG0gLTM0LjcyMjk1LDUuNzAyNDkgYyAwLjY3ODExLC0wLjAxMDUgMS4zNjU3NywwLjAwOSAyLjA1ODI3LDAuMDY2MSAwLjE5NjA5LDAuNzA1NTggMC4zMzY2OCwxLjQ1MDE5IDAuNTc2MiwyLjExNTYzIDAuNDQ5OTIsMS4yNTAwMyAwLjk5NDY2LDIuMzYzNSAxLjU3ODIsMy4zOTQxMSAtNC4yMzU3OCwtMS44OTA2NiAtOC42NDcxLC0xLjU4ODcgLTEyLjIwNDk1LC0wLjU3MjA2IC0xLjkzMzI0LDAuNTUyNDIgLTMuNjMxNjUsMS4yOTE1MiAtNC45NTA2LDEuOTYwMDkgMC42MzE1OSwtMS42NDEzNyAxLjM0MzE5LC0zLjE1MjQgMi4xMjQ0MiwtNC41NDU5OCAyLjA1OTc0LC0wLjg3MDY0IDYuMjA2MDYsLTIuMzQ2NjggMTAuODE4NDYsLTIuNDE3OTQgeiBtIC0yLjI1MTU0LDUuNzM2NiBjIDIuOTgzMSwtMC4wMTgzIDYuMTA4OTUsMC43MTU3OCA5LjAxODU3LDMuMDgxNDcgMC4wMDMsMC4wMDMgMC4wMDcsMC4wMDMgMC4wMTAzLDAuMDA2IDhlLTQsNS4zZS00IDAuMDAxLDAuMDAxIDAuMDAyLDAuMDAyIDUuMTc3Myw0LjIwMjAxIDExLjM4MjM1LDQuMjUzMjkgMTYuMjAzMTUsMy4yNzE2MyAxLjc3ODA2LC0wLjM2MjA3IDMuMzc0ODIsLTAuODYzMSA0LjY4NzU3LC0xLjM1MzQgLTIuMTE5MzYsMi44ODc5NiAtNC43MDc4NCw1LjM3MDczIC03Ljg2ODc4LDcuMTk4IC0zLjAzMDM1LDAuODY5ODEgLTYuNDA1NywwLjYyMDUyIC05LjczMTE4LC0wLjU4NzA0IC01LjA0NzI5LC0xLjgzMjc4IC05Ljg0MzIyLC01Ljk2MTc2IC0xMi45MTYwMSwtMTEuNjA1NDkgMC4xOTc1LC0wLjAwOCAwLjM5NTQsLTAuMDEyMiAwLjU5NDI4LC0wLjAxMzQgeiBtIC0yLjI5MzkyLDAuMDkzNSBjIDAuOTY1NzMsMS44OTM3MiAyLjEzOTk1LDMuNTg0MDkgMy40MzM5LDUuMTQwNzcgLTMuNTI0OTksLTAuNzIyNDEgLTcuMTY4MDcsMC4xNTcxMiAtMTAuMTAxNzEsMS4zOTgzNiAtMS40NDc4NCwwLjYxMjU5IC0yLjcyMjYxLDEuMjk2NTUgLTMuNzQ3MDYsMS45MDI3MyBhIDMuMDAwMzAwMSwzLjAwMDMwMDEgMCAwIDAgLTAuMDUyNywtMC4wNDg2IGMgMC4zNjc1LC0xLjgzNDg3IDAuODExNjQsLTMuNTQ5MzEgMS4zMjY1NCwtNS4xNDkwNCAxLjI4Nzg0LC0wLjc1MTg4IDMuNDY2NTcsLTEuODc1MDYgNi4xMDYwOSwtMi42MjkyOSAwLjk2MDA5LC0wLjI3NDM0IDEuOTg2OTMsLTAuNDczOTMgMy4wMzQ5NSwtMC42MTQ5NSB6IG0gMS41NzgyLDYuNDA2ODQgYyAxLjI2NTA0LDAuMDIyIDIuNTE0ODIsMC4yNTk1NCAzLjcwOTM0LDAuODIxNjYgbCAwLjAxMTQsLTAuMDI1MyBjIDIuNjQwNDEsMi41OTA3MiA1LjY1MDksNC41ODUyIDguODA0NjMsNS43MzAzOSAxLjkxMTQ5LDAuNjk0MTEgMy44Njg0NiwxLjA5MjggNS43OTE5LDEuMTY3MzggLTAuMTE1NDMsMC4wMzc5IC0wLjIyOTU4LDAuMDc3MiAtMC4zNDYyNCwwLjExMzY4IC0zLjUzMjk1LDEuMTAzNjggLTcuNjg5MjksMS40ODg0OCAtMTIuNTUwMTMsMC45MDE3NiAtMC45OTc3NywtMC4zMDI0OSAtMS44OTc1MiwtMC42ODk2IC0yLjc3NCwtMS4xOTI2OSAtMi4xODc2MiwtMS4yNTU3MSAtNC40MzIwMywtMy40NzQ3MSAtNy41MTk5NSwtNi43NjU0OCAxLjU5NDMxLC0wLjQ1MTg5IDMuMjQ2NjEsLTAuNzc5NzIgNC44NzMwOSwtMC43NTEzOCB6IG0gLTYuNTI3MjUsMS4yMDI1MSBjIDIuNzUyMjcsMi45NTc2NSA0LjgyNjEzLDUuMDkyOSA2Ljg2NTIxLDYuNTkwODEgLTMuNDcwMSwtMC44MjA2NCAtNy4yNDk0NCwtMi4wODc4NCAtMTEuMzYzNjQsLTMuODc0NjkgYSAzLjAwMDMwMDEsMy4wMDAzMDAxIDAgMCAwIC0wLjE0MjExLC0wLjYzMDk3IGMgMC45NjMwMSwtMC41NjY5MyAyLjE1NjQ1LC0xLjIwMzY4IDMuNTA1NzMsLTEuNzc0NTcgMC4zNDc2NCwtMC4xNDcwOSAwLjc3MTExLC0wLjE3NjEyIDEuMTM0ODEsLTAuMzEwNTggeiIgaWQ9InBhdGgxMTAwOSIvPgogIDwvZz4KPC9zdmc+;imageBorder=none;imageBackground=none;fontFamily=CMU Sans Serif;strokeWidth=0.4;fontSize=11;" parent="1" vertex="1">
          <mxGeometry x="589.5" y="880.5" width="50" height="50" as="geometry" />
        </mxCell>
        <mxCell id="6HFF_rAxcvzF4UJ83M6X-183" value="OCEAn" style="rounded=0;whiteSpace=wrap;html=1;fillColor=none;strokeColor=none;fontFamily=CMU Sans Serif;fontColor=#4DBD38;fontSize=11;fontStyle=1" parent="1" vertex="1">
          <mxGeometry x="589" y="930.5" width="50" height="10" as="geometry" />
        </mxCell>
        <mxCell id="165" value="" style="html=1;verticalLabelPosition=middle;align=left;labelBackgroundColor=none;verticalAlign=middle;strokeWidth=0.4;strokeColor=#9C9E9F;shadow=0;dashed=0;shape=mxgraph.ios7.icons.lightbulb;fontFamily=CMU Sans Serif;fontSize=11;fillColor=#FFF59B;labelPosition=right;spacingLeft=0;spacing=2;fontColor=#9C9E9F;" parent="1" vertex="1">
          <mxGeometry x="416.5" y="395" width="15" height="20" as="geometry" />
        </mxCell>
        <mxCell id="6HFF_rAxcvzF4UJ83M6X-184" value="RG3" style="text;html=1;align=right;verticalAlign=bottom;whiteSpace=wrap;rounded=1;fontColor=#9C9E9F;fontSize=9;fontFamily=CMU Sans Serif;strokeWidth=0.4;fillColor=default;fillOpacity=70;spacing=0;spacingRight=3;spacingBottom=-1;" parent="1" vertex="1">
          <mxGeometry x="425" y="378.12" width="27" height="12" as="geometry" />
        </mxCell>
        <mxCell id="163" value="" style="html=1;verticalLabelPosition=middle;align=left;labelBackgroundColor=none;verticalAlign=middle;strokeWidth=0.4;strokeColor=#9C9E9F;shadow=0;dashed=0;shape=mxgraph.ios7.icons.lightbulb;fontFamily=CMU Sans Serif;fontSize=11;fillColor=#FFF59B;labelPosition=right;spacingLeft=0;spacing=2;fontColor=#9C9E9F;" parent="1" vertex="1">
          <mxGeometry x="417.5" y="367.5" width="15" height="20" as="geometry" />
        </mxCell>
      </root>
    </mxGraphModel>
  </diagram>
</mxfile>
